<mxfile host="app.diagrams.net" modified="2021-04-08T10:12:40.743Z" agent="5.0 (Windows)" etag="pcO0oblKwclzZE-qpAGe" version="14.5.8" type="github">
  <diagram id="joUVVFrSKEX39srgEi2g" name="Page-1">
    <mxGraphModel dx="1038" dy="529" grid="1" gridSize="10" guides="1" tooltips="1" connect="1" arrows="1" fold="1" page="1" pageScale="1" pageWidth="827" pageHeight="1169" math="0" shadow="0">
      <root>
        <mxCell id="0" />
        <mxCell id="1" parent="0" />
        <mxCell id="O5HHJs2F6-DvPsNWcEXv-1" value="" style="endArrow=classic;html=1;" parent="1" edge="1">
          <mxGeometry width="50" height="50" relative="1" as="geometry">
            <mxPoint x="30" y="270" as="sourcePoint" />
            <mxPoint x="540" y="270" as="targetPoint" />
          </mxGeometry>
        </mxCell>
        <mxCell id="O5HHJs2F6-DvPsNWcEXv-2" value="" style="endArrow=classic;html=1;" parent="1" edge="1">
          <mxGeometry width="50" height="50" relative="1" as="geometry">
            <mxPoint x="240" y="460" as="sourcePoint" />
            <mxPoint x="240" y="20" as="targetPoint" />
          </mxGeometry>
        </mxCell>
        <mxCell id="O5HHJs2F6-DvPsNWcEXv-3" value="" style="shape=waypoint;sketch=0;size=6;pointerEvents=1;points=[];fillColor=none;resizable=0;rotatable=0;perimeter=centerPerimeter;snapToPoint=1;" parent="1" vertex="1">
          <mxGeometry x="270" y="110" width="40" height="40" as="geometry" />
        </mxCell>
        <mxCell id="O5HHJs2F6-DvPsNWcEXv-4" value="" style="shape=waypoint;sketch=0;size=6;pointerEvents=1;points=[];fillColor=none;resizable=0;rotatable=0;perimeter=centerPerimeter;snapToPoint=1;" parent="1" vertex="1">
          <mxGeometry x="390" y="190" width="40" height="40" as="geometry" />
        </mxCell>
        <mxCell id="WoHaV7m5W1pwDuktjGvj-3" value="X" style="text;html=1;strokeColor=none;fillColor=none;align=center;verticalAlign=middle;whiteSpace=wrap;rounded=0;" parent="1" vertex="1">
          <mxGeometry x="520" y="280" width="40" height="20" as="geometry" />
        </mxCell>
        <mxCell id="WoHaV7m5W1pwDuktjGvj-4" value="Y" style="text;html=1;strokeColor=none;fillColor=none;align=center;verticalAlign=middle;whiteSpace=wrap;rounded=0;" parent="1" vertex="1">
          <mxGeometry x="200" y="10" width="40" height="20" as="geometry" />
        </mxCell>
        <mxCell id="WoHaV7m5W1pwDuktjGvj-7" value="A(3,8)" style="text;html=1;strokeColor=none;fillColor=none;align=center;verticalAlign=middle;whiteSpace=wrap;rounded=0;" parent="1" vertex="1">
          <mxGeometry x="290" y="100" width="40" height="20" as="geometry" />
        </mxCell>
        <mxCell id="WoHaV7m5W1pwDuktjGvj-8" value="B(6,4)" style="text;html=1;strokeColor=none;fillColor=none;align=center;verticalAlign=middle;whiteSpace=wrap;rounded=0;" parent="1" vertex="1">
          <mxGeometry x="430" y="190" width="40" height="20" as="geometry" />
        </mxCell>
        <mxCell id="WoHaV7m5W1pwDuktjGvj-9" value="" style="endArrow=none;html=1;fillColor=#d5e8d4;strokeColor=#B3396E;" parent="1" edge="1">
          <mxGeometry width="50" height="50" relative="1" as="geometry">
            <mxPoint x="290" y="210" as="sourcePoint" />
            <mxPoint x="290" y="130" as="targetPoint" />
            <Array as="points">
              <mxPoint x="290" y="130" />
            </Array>
          </mxGeometry>
        </mxCell>
        <mxCell id="WoHaV7m5W1pwDuktjGvj-10" value="" style="endArrow=none;html=1;strokeColor=#FF3392;" parent="1" target="O5HHJs2F6-DvPsNWcEXv-4" edge="1">
          <mxGeometry width="50" height="50" relative="1" as="geometry">
            <mxPoint x="290" y="210" as="sourcePoint" />
            <mxPoint x="290" y="220" as="targetPoint" />
          </mxGeometry>
        </mxCell>
        <mxCell id="WoHaV7m5W1pwDuktjGvj-12" value="" style="shape=link;html=1;fillColor=#60a917;strokeColor=#2D7600;rounded=1;labelBackgroundColor=#2617FF;fontStyle=1" parent="1" source="O5HHJs2F6-DvPsNWcEXv-3" target="O5HHJs2F6-DvPsNWcEXv-4" edge="1">
          <mxGeometry width="100" relative="1" as="geometry">
            <mxPoint x="210" y="240" as="sourcePoint" />
            <mxPoint x="310" y="240" as="targetPoint" />
          </mxGeometry>
        </mxCell>
        <mxCell id="Gut2ZQV7lCAkwc2HY2-z-1" value="&lt;div&gt;欧式距离：sqrt（(6-3）^2+(4-8)^2) = 5&lt;/div&gt;&lt;div&gt;曼哈顿距离：abs(6-3)+abs(4-8) = 7&lt;/div&gt;&lt;div&gt;切比雪夫距离： max（abs（6-3），abs（4-8））= 4&lt;br&gt;&lt;/div&gt;" style="text;html=1;strokeColor=none;fillColor=none;align=center;verticalAlign=middle;whiteSpace=wrap;rounded=0;fontSize=19;" vertex="1" parent="1">
          <mxGeometry x="280" y="400" width="500" height="130" as="geometry" />
        </mxCell>
        <mxCell id="Gut2ZQV7lCAkwc2HY2-z-2" value="" style="shape=image;verticalLabelPosition=bottom;labelBackgroundColor=#ffffff;verticalAlign=top;aspect=fixed;imageAspect=0;image=data:image/png,iVBORw0KGgoAAAANSUhEUgAAAiQAAAFrCAYAAADhFZJUAAAgAElEQVR4nOzd51sTWRsG8PcPpdq77rqu6zZ3XQOhV0FAUFSwppIAIfTee+89tPQ+mTn3+yGQJaQQQI2rz++6zgdmkpOZScjcOefMmf/973//AxUqVKhQoUKFSlQL9jHGwBgDz/PgOA4OhwMmkwkcx4EQQggh5BNg/zvk8AoKJIQQQgj5UiiQEEIIISTqKJAQQgghJOookBBCCCEk6iiQEEIIISTqKJAQQgghJOookBBCCCEk6iiQEEIIISTqKJCQr8PB54wQQsh3iQJJKJM7S3g71gCLyx7tTTmTRcMm2lZGv+qTvcAENCwM4M1oPQQmRHtzCCGEfHn/rUDCCzzGthaxazOdug4H58Ke3RSyODgXAODjRDNuqnNhdFgjqldvN6NpcShs6VufAh/mhNuzNolXw5oTl8rR+qDb6eBcSGp9jft1RbC6HRjWzeOf5pfHlg3zrq+OPbsJlSNav9d7PVKH2b01ODk3OlbGjt3vqd0VCIIAt4cLWlweDk96ZIiTJmF0ayHk49weDrxAgYUQQr5B/51AYnM7kd35Eeflqehbnz51PXXzfbhalRmy1M33AQCyOj8greMtPAIfUb3DunnESERhywNtMdweT8g6ng/WIEEmRmrbG2R2vPcr5+WpuFtbELD876YXOC9PwZppJ6C+2rlexMuS0bM2CcYYWpaHcV6eiq7VcczurQWU1uVRJMrEWNCv++pY0G/gVnUulNMdqJnthmKqHZeU6WhYGMCOzYjrqmxcVKbhmiorZCkfqkX/xgxuVeeGLJeU6YiRiHBJmR72cW3Loyd8xwkhhPwHfN2BRGAMI7p5FPVV4YIiFfHSZMRJk84USFQznbiszIBksgXVs90BZUG/AQfnwu2aPMTLknFBkRZQ8rulAfUO6+YRJ01Cx8pY0NdNbq2IKJDcUGXD7LQFrLtbW4DK0fqA5aNbC7ioSAsIJK3LI7igSIVssg3CfndNy/IwLirSfft4tEzvruKcPCUgkPxW/wwuj/f9dnAu3KrO9QskLcvDIffpwIZ5L+BY53R9xPvxJqhnu/yWq2e78HJYg+yuDwHrVoxbx74WIYSQ/5yvO5B4BB7JrRVIkIkhanmFytH6TxJI7tTkw+i0guM9vrEVZqcN78YaYHM70L8xg6uqTKyZtqG3m6G3m2Gwm7FtNeAXbTFyuyQB9X6qQHJdlQ29wwyPwPuVu7UFeD2iDVg+vDmHC/JUXyARGMOCYRMXFGnI7HwHN8/59rFleRgxEhHipclBS5w0GTES0WcJJIf38WHjc3ACj580hTgnT0Fu90forHtw8xxsbgckEy24oEhDavsbuHkOKW2VeNqnjPg1CCGE/Od83YFEYAzj20tYNm6BMQbVTOcnCyQL+g08bHyO+T3vybdteRQXFGmY2V1FUusrZHS+h5vnUD5Ui9q5XjDGsGHeRYIsGQ0LAwH1fqpAEi9NxgNtCX5vKPUrCTIxrqmyApbfrS3AuUNdNiO6eSTKxHjap/S2euys4N14I9w8h5blYVxQpKJnbRKLhs2A0rEyhkRZYAvJT5oCjOjmMbmzjKHNWVxVZZ45kACAy8Nh0bCJuvk+XKnKwI+1T3BZmYE/G8swtbPi6y6jQEIIId+8rzuQHPUpA4nRaUVBrxw/1j7Bjs2I3+pLkNctxbp5B+fkYjQsDMDlcePPhjKUDlRDYAztK6OIkYiwbNQF1PupAskFRSrejTVCPtnmV65UZeBRc3nA8qJ+Jc4faiExOW0o6JXD7nbCzrnwqLkcDxuf+wLJeXkqOk84huSCIg0/aQpxXp6KS8oM/Fz3FF2rE75Acr+uCMmtFUGLZq43YB8fNj6Hg3NhbGsBzwercVGZjp/rnuJpnwJ53VL8UPMEP2kK0b48Co73UCAhhJBv3/cdSFaMW4iXJuOvphe+1pHauV5cVKZh22oICCTF/VW4U5MPB+cOqPdrGUPC8O98Ho0Lg0iUizG4Oesb1BojESFOmhSiyyYpoMvG6LCgYXEQBocFae1vUdxfBZvbAY73+AJJdtcHyKfa/IpkogVXqzLxfLAmYB8fNj6HnXPinqYQL4ZqsGDYgM3t8H3WTE4bhnVzeNavgoNzUSAhhJBv3/cdSA53A4nbKuDycNg076FleQSMMTg9bvxW/wxZnR/ACwJmdlfRuToOhsA5PdpXxhAvTUbv+lTQ1400kFytysTM7io2zLt+5XZ1Hor7qwKWNy8O+Y0hOTCzt4pLynQ87VX45vaY12/g3VgjTEECDwDo7Ra8GW3Anv3fy6o3zLvYsurBCwIyOz/4BYxwXTZuD4d7msKggeRKVSYKeuURlxuqHAokhBDybfu+AwkAzO6tIV6ajJT2SnC8f1iwub2/4v9sLIObDx0kAO+A0QSZGCO6haDrIw0kx106HKyck/lf9svA8Ft9CWIkIkgmWgAAS4ZNFPTIIy4L+g0AwMthDSQTLZ8skMzr19G+MhpQSgfUiJWI8HJYE7DugbaYAgkhhHzbvu9AYnU78Iu2CD/U5HvnN9nwr3fbZsCVqkzcrs6Dze0MW2/1bDcSZSmY2l0Juj6SQKKc7oCo5RV616cwopv3KzfUOcjp+hiwvG6+D/80l2PbagAAmF02ZHW+x2VlBq4oM32BZNGwGbYVIrXtDeKkSUhtf4OCXjnm97ttjgaSW9V5SGmrRPlQ7akCSTC8wCOlrRK/NzwLepwXDZtYNW0fWw8hhJD/rO87kDQuDiJOmoSx7QVkd33EjzX5MDgsvse2r4zhuiob11TZWDJshq23fKjWO5bDHDhBGRBZIAkn1BiSoxoWBpAgE6N9ZQwPtMWQTLSAMRZwufDRMrt3MAfJpm8ZYywgkKS1v8XQ5ixmdld9geSCMg1XVZkBJVaa5BdIpndXkSATn6oVKF6ajMmd5VMdO0IIIV+97zeQ6Cx63K8rQkGPDB6Bx7p5B9dUWXg2oILABHC8B49bXqJ0QI209jd4O9oQtt5HTeW4U5MXdEAqEDyQtC+PYHxrEbwgYMuqD7iCJpKrbA5Kw8IAPAKPPbsZXavjcHJuXyDRWfR43PwSfzW9CFl+0RYjVpKEB9oS/NX0Asmtr2Fx2SPqsnk+WIPutUm/0rEyhlvqnKCBpGq6E5M7y5jcWUbfxjRu7rf+TOwsYXJnGcP7lxgfFO18PwUSQgj5tn07gYSBweKyH3tztoNA0r8xg/SOt7C5HAAAXhAgm2yDYqodAhMwvr2Ic/IUDOvmoF3ox+3qPOgPtZ4cNq/fwHl5Cp70yMCHmGo+WCAp6lPialUmTE4bJrYXcUudG7LESZNwQZEWcn1Sy2u4Pf++J26PxxdI9uwmlA6qUdAnx0+1Bcjq/IDi/iq/ktH5DnHSJN+6F4O1sLudpx5DIjABC/oN6Cx637KDQDKsm/cdc9VMF25V5/q6nBYNm7ihzsHEzpLveXP743wokBBCyDfr2wkkrUveqdKzOt6HDAUHdRx02Ry9UZuwv68MDOK2CjzQlsDOuaCz6HFBkeYbj3GY2WnDj7VPcEGRhk3LXsjXPRpIPAKPv5vKcb+uCG6eg8AEuPZvNBes/Fj7BK+G60KuPzwjK+AfSA4sGXRIlKfgaZ8i4EqhBf06zslTsWTwn5r9tIEkmKOBpHqmG+fkKWheHIbBbsb83jo6VsaQ1l6JS4p03zgWCiSEEPLN+3YCiXqmCzESEf5sLAu4WuZoHefkKUhrf4Psrg9+Jb9bCp1Fj5J+FS4p0zG5/yvdI/B42qfEDXUOlo0638nc6XHjSY8MMRIRpJOtYbc9rf0t7tTkw+b2tsgYnRZcV2cjL8h9cYKJdAzJgWCBhIGhe20SFxXpkE+2+bUmzeyuhgwkJf1VaF0ewf26ItypyccvdcW4pynEqmn7TIEko+MdYvdbfu7U5OOBthiPmsuR3fUBvzeU4o/GUtg5JwUSQgj59v23Akk4DAwrpq1j7847vr2EV0OaoOX5YA0KeuWIlSbh/XiT3/Nsbid+0hQgXpqM6d1VWN0O/NNSjlhJEtI73oYNQQCgmu5ErESEe5pCZHa8x93aJ4iVJqFxcRCTO8vI7vwQcCffSO72e7jk90h9Y1iCBRLA2wo0uDEDB+eCwWHBnt2MPbsZ0slWnJen+l3NUjGq9Q0ovazMwK3qPDxueQXNXC+2bQZfC8mTHilqZrtDltblEfCCEBBIwnWvuTxujG0twMG5MKybp0BCCCHftm8nkJyVwAS8H29CgiwZssk2383kDhvfXsJ5RSrS2t9g127CA20xSvZnEz2O1e1A+ZAGv2iLcbkqA380lEEx1Q4H58KiYROvR+rwalhzpvJmtAHW/TExoQLJAZPTih9rnyBRJkaiTIxYicg3pfuBJYMOLUvDGNtehM6qh4f3D3t7dhPu1RXiclVG2PJX03O4eU9AIDlO2UA1fqt/hpvqnGO7xAghhPynUSA5zOKyo3FhAAILnIn1wIZ5Fzs2IwDA6nIcO4g2WjieR3F/FVqXgneneAQeM7urGN1awOjWAmb2VgPG1HxqG+Zd5PdIsWwIvBdQMOPbS5BNtuLNaAPWTNtBZ8glhBDyTaBAQgghhJCoo0BCCCGEkKijQEIIIYSQqKNAQgghhJCoo0BCCCGEkKijQEIIIYSQqKNAQgghhJCoo0BCCCGEkKijQEIIIYSQqKNAQgghhJCoo0BCCCGEkKijQEIIIYSQqKNAQgghhJCoo0BCCCGEkKijQEIIIYSQqKNAQgghhJCoo0BCCCGEkKijQEIIIYSQqKNAQgghhJCoo0BCCCGEkKijQEIIIYSQqKNAQgghhJCoo0BCCCGEkKijQEIIIYSQqKNAQgghhJCoo0BCCCGEkKijQEL+Ww4+j4QQQr4pX3cgERjDrs0EhvAnIIvLjhdDtejfmD62zh2bEbk9EgxtzgZdv2s3Ibdbgs7ViVNt8+fQuTqOJ71y2NxO8IKA/vVpCEyI9mYF0Fn2UDlaD4PD4rfcI/CQT7VhwbAJxhj6N6ZhdFpPXL/FZYdkogVbVn3Ez+EFAU2LQzA5bSd+PUIIIV/M1x1IhjbncE6eisHN2bChZMdmxCVlOj5OtIStT2ACivurcF2VhXn9OkxOq6+YnTbwAg/5VDvipckY3VrwW29yWmHnXCHrblocwujWAjwCDwDwCB7kdkvQvDR85l/0zYtDuKRMh8lhxejWAi4p0/G0T3mqk3owFpcdm5Y937aflmyyFVeUGVg1bfkt11n2cEmZDu18PywuO36ue4q/m17AyblPVP+KaQuXlOnI7HwPNx/Z52/VtI3rqmyktr+BnXMCAPbsJkzuLEdUbG4nPAKPTcse1s27Zyq7NpNvu3ZsRmzbjBCotYcQQoCvPZDs2c34SVOAK1WZmNheCvm4SAPJzO4qzstTkSAT41Z1Lm5X5/nKL9pidCyP4aIiHbGSpID1t6vz8Hq4Lmi9FpcdN1TZSGmrBMd7AHiPW0bHO/xQmw+z62y/znvWJnyBRNhvYUiQJeNxy8szhwiz04YH9cUoG6wGL5y+1YWB4feGUuR1S/y2SWAMBT0y/KIt9gWQnrVJxEhEqF/oD6jHxXMwOaxBi9FhxbuxRlxTZWHRsBnyca5DYUVgAgY3Z5EoT8HvDc9gdtqgmu5EjEQUUZncWcau3YS7tQW4pMw4U0nveOfbrtq5HtxU52Jev37qY04IId+QrzuQAN6wcbe2AFeqMrBs1IV8zHGBZGhzDpeU6agYqcO21YDf6p9BM9cLm9sJm9uJDfMOfqt/hoeNz2FyWtG0OIhf6oowu7fme4zLE7jPbt6DJz0yXK3KxIZ5129d3/o0YqVJqJntDrpNJqcVG+bdY0vNbDcSZGIMbMxgw7yLdfMO1DNdkE62YsO8C6vLcYIj+i8GhpdDGlxTZWP9yLaftJ7WpRFcU2Vhw7ILl4fzHat5/QYSZWKUDVZjRDePEd08+ten8XfTC9TO9viWzeyuQWACtPP9EYeFUEU77w06vCDAybkhMAH1C/3I6vwAg8MCjvf43tNQpXttwhdIbG4nqmY68XGiJaC8Ga3HZWUGbqpzg64/XFqWhn3HzMG58LjlFf5oKIXN7Tz1sSeEkG/E1x9IAGBYN4eiPmXI1oDjAsnM7irOyVOQ0lYJj8CDgaF+vh/XVFmwuOwAgHXzDn6sfeI7MfMCj8yOd8jp/hh22wY3ZxEnTcbbscaAdR6ex19NL3BBkYoNS+AJ/+Ww5swn3xiJCOqZrrDbGMqaaQfn5Cmom+s71fMPmF02XFVlonRADcYY3o414E5NHhycC88G1BHtw6/1JXDzHmjn+3FOnop5/caJt2Nev4Fz8lRfIOlbn8ZFRRqWDFvHPDPQ0OacL5CEY3U7cLe2AA8bn5/4NbZtRlxWZkA62UoDdQkh37v/RiA5znGBhOM96FqbgINzoaRfhZS2SojbKnC/rggpbZW+8k/zS7+/HzWX4++mcrSvjIZ4XQPu1hbgTk0e9uymoI/RWfW4XZ2LB9oS7B55zNzeGpqWBo8t78YaESdNQuVofZD1Q1g1bZ/4mHG8B5md7/Fj7RO4PIFjOdz7rQgc7w2BuzYjutcmMLa16OuWOqCe7UKiTIwlwyb0DjN+qH2Ckn4VFvQbuKzMwA81+Vg26nwtPsX9VbimysKSYdO3bNtmAGMsaCBZN+/iaZ8C6+Yd37JNyx4KeuWYO9TlcVwgcfMefJxowavhuqCldq7HV9eXCCS8ICC78wN+0Rb7gjEhhHynvt5AYnU7sGzc8pVNyx4ExmBx2bFm3vEro1sLuKBIQ9lgTcA6nVXvuyLFzXtwT1OIipH6kOMPDpcdqwG/1ZdAEiTomF02/N38ApeVGX4nxaMYY+haHUeiLAX3656e6AqRA3q7GeflqRjbmj/xc0PRWfS4rMxA6YA66HrJRAtiJCIoptpRNliNOGkS4qRJiJGIcK0qC8tG70newblxpyYP6R1vMaKbR/lQLW5X52LNtI37dU8RIxHhnqYQ7kPdXZWj9bhVnRs0CO3aTBjRzcHudoLjPRjbWsTVqixcV2Wjf2PG97g5/Tp+rH2CBJkYlSNaWFx22N1OjOjmfINHjwYSB+fGdVU2fqx9gl/rS/zKNVUW/m564av/pIHkj4YyDG7OYNGwGfEVUAwM7StjSJSJMb61GNFzCCHkG/X1BpKWpWG/Jv0/Gkrh9nCome1BokyMhEMlXpaMGIkIcdIkv+UJMjF+0RbDvt9HfxBIftY+RU73x2NLVtd7XFZmBAQSm9sJcVslYqVJqJvv9TW3h5ojQ2ACOvZPPD/U5GN2d/XYS5kPMzqsuKRIR9vyyBmOqL+BjRnES5PRshS8zoNA8mNtAXK7JJjcWcbM3iryuqWIkYggbquEIAjgBA8eNj3HHw2l+K2+ZL/OYahnuhArFeGGKgc/1RZgz2aC2WmD2WlD+VAtbqpzsGsz+pbZOZffsbO5nSjslSNRJsbj5lfQWfV+6xkYrC4HPow3I1aahJ/rnqJnbdLvMaECSbBg92a04UyB5GpVFi4q03BRkY7CXkXE40K2LHqcV6Ti43hzRI8nhJBv1NcbSDjeA4vLDovLDnFrhS+Q7NnNAZdmdq2O47w8FYW9ioB18/p139UjB4Ekpa0S1TPdx5aq6Q7crs7zCyRWtx3pHW8RL03Gq2GN369hnVWPe3WFaFseDQgmAhOgXejHlapMxEhEaFgYAC8IGN9eQv/GdMgyu7cGJ8fhpjrn1GNFgqma7kCsNAkLIcZqHASSu5oCv+4Eg8OCq6pMXFKmQ283+z3n+WANHjaWweZ2oGt1AuWDtcju/IAYiQiJMrGvHLS0HF6W3y3dH4TqQtfqOO7U5OGSMh2Vo1o4grSkHGBgmNhewv26IiTIxKgY0cK4Pw/KlwwkDxufQ2fVI7X9DeKkybihzkHP2uSxV0G5PG7c0xQiqeU1XQJMCPmefb2B5LC09re+QBJMpJf9HgSS3K6P6FodP7a0LY/gx9onfoFk22bE5aoMVIxo/S9vFQTkdn1EnDQJI7r5oC0ljDEsm7ZwQZGGyZ1luDxu3K8rCjvYM639LRhj+ElTiGcD6k920nozWo/z8lRs2wxB1x8Eko/jzf4tE/uXM8dJkzC7t+ZbvmLawlVVJhb3Jz9jjIEXBOR2S/CTpgCm/VYQO+fCy2ENbqhzYHRYfctcHg4u3o0H9cWIlYjwoL4Y2zZjRIM9GWNw8xyeD9UgViLC7w3PIAhCyEByXp6KS8p0v5IgE585kBzs8/DWPC4oUhEnTcL9uqKw88UwxvBP80s80JbA7fGEfBwhhHzjvs9A8lfTC7we0R5byodqcV2VHdBls2HZDRgnMLAxg3hZMp72KY+dz8Mj8L7j6uTccHAuODgXWpdHECdNQtvKmG/ZweWzopZXfvOcnFV+txTn5anYsRmDrj8IJMEuWc7sfL9/sl4C4J3d9sfaJ6gc1YKBQWACXB43GGPI7ZacaAzJ2NYCqqY7kd31ERcUaScqhb1y1C/0Y3RrAUDoFpKcro8B7/WfDaVnDiQHGGNYN+8gt1uCWIkIt6vz0Lo8EnJsyeOWV7hbW3DiieIIIeQb8n0GklfDGuzYjMeWdfMuHmiLgw5qPcwj8HjY+Bw31NnYsv7b4mBx2TG7txbxIMfutUnESZPQszYVsO5Zvxr36p7C6j7dnCNHvRis+WSBpKBXjhiJCA+0JbiszECMRIR/Wl6CF3jkdktwt7YAe3YzzC47zC47XgzV4IY6G7s2k2+Z49AYEsYYFvWb6Fuf8iudq+O4XZ2HX7XFAev61qewqN+M2hiSYFfZCIxBO9+H66psDOnmgj6fgeFxy0s80BZTCwkh5Hv2fQaSc/IUXK7KOL4o0xEnTQobSATGoJhuxzl5CjpWxvy6VKpmOnFOnur7xX6ccIGkerYbV5QZQeczOQ3JRAvipElYC3HJ8EkCSVGfEj/XPUVhrwK1s73oWZ/EvH7d10ISJ03CTXUObqlzcUudiwuKNMQeWVY6oD62Zcnt8eCBthjJrRUR7WO0A8mBnTBTxHM8j1/rS/CoqRz8V3h/IkII+UL+e4GEMYYdm9GvXz7SQOIReLwc1qBrdQLLxi38XFcEszP4/A8VI1qoZjrxdqwBXWFutDe7t4bz8lQ87VMEXDljctrwY+0T3K8rgimC+86ECyTTuytIlIn9toUXePStT2PTsnds3Ue1L48iTpqEvvXgNyQ8SSAJJ7dbcqqrbIL5VIHkt4ZnSG6t8Ct3avI+WyAJx+iw4JIyHS+HNKd6PiGEfCP+W4HE5eGgne/DFWUGWg9dAhvJTK0Pm8r8ys91TxEvTcafDWUB6x42leGiIg3X1Fl+y0r6q/zqdXrc+K3+GS4p0wMmPQO8zfFrpm1cVmYgubXi2BvCHQSSrtUJ6Cx61M/3I69biueDNXBwbvxc9xTJrRUQ9lsSrC4Hrquz8SrEPXbCWTBs4rw8NegMs8DZA4nLw8HpcZ94DEk4nyqQlA2oUTPbHVC6Vsd9z/1SgWRwcxbxsmT0r88c/2BCCPl2/TcCibi1Areqc5HU+hrn5Cko7FP4TTB2XCBZN+/4zcj5YqgWN9Q5uFOTH3LWzpvqXDzQFvstq5nt8XvNjI53SJSJ0bAwgA3zLmZ2V333ZulZm0TT0iAaFgfwe8MzJMi883McbkVZMW5BM98L+VQ7Svqr8IvW/4qbRJkYt6vzIJ1sBQDUzfciUS5G5+oYGGNYM+0gXpoc9CZ1x7G5nd6ugubyoN0JkQYSgQlY0G+geWkYVdOdeNIjw+3qPCTIxBjdWvAFErPTBifngpNz7R/fHJicVt8y5/4g2HDOGkjcvAcVI1q/GV9D+RKBRGACygZrcKs6F3tHLqEmhJDvzNcfSDwCjx9q8hEjEe3PVroYcOKKtMvmQOvyCBJkYlRNd4Z8zOOWV3g+WBN0nYNz+bbpJCVBLvY7GQ5ueO+Dc7D+VnUuivqUGNiYgc3tCOgCsrjsuKcpxDVVFnZtJjQtDiJOmozp3dWI9vuojpUxJMiSz3THWV4Q8PP+jKzefcjBh/Fm7NpMvjEkkRybq1VZMDisqJ7txs3qnOBFnYN4aTIS5OLQj6nOQfV+iDrLvWw6V8c+eyCxu72fo+L+qjPdaZkQQr4BX38gMTgs+KEmHy+HNSF/RUYSSLatBjztU+KXumKcV6RCNtUW9O69B8IFEgAY2pzFi6Fa1M33oWV5BJ2r4+hem8Do1gKmdlawYtrCltWAXZsRTo8bU7sruKBI9btZn5NzYcmgg9FpjeiExBjDomET9zSFiJclI0EmxjVVVkTjU4LheA/S2t/g1/oSWM9wL5V5/TrWTDtBj2dutwQ31DloXxlD99pEyNK/MQM3z2FwcxalA+ozlcHNWQAnCyTj24t4oC3GP83leNj4HOflqfshyRL2eacNJLwgoHRAjVvVuUG7+wgh5Dvz9QcSwNsiEY7JaUVW14ewU6tzvAeFvQqUDFRhz246dur2yhEtNHO9p9reYDwCD8VUO4yO04WHw6xuO4r7q5DW/vZUd8U9bMGwgfPyVCim2j/LHWdlU20oGVB9svlTTmJmdw1Zne8jun/Qns2E9I63ELdVQNxWgfKh2mM/d4D3s1nUV4WXwycblNq3PoV4WTKal4ZP9DxCCPlG/TcCyaciMHaie8h8DwTGMLu3hlHdwrHTnJNPZ25vHYObs8cOdCaEkO/E9xVICCGEEPJVokBCCCGEkKijQEIIIYSQqKNAQgghhJCoo0BCCCGEkKijQEIIIYSQqKNAQgghhJCoo0BCCCGEkKijQEIIIYSQqKNAQgghhJCoo0BCCCGEkKijQEIIIYSQqKNAQgghhJCoo0BCCCGEkKijQEIIIYSQqKNAQgghhJCoo0BCCCGEkKijQEIIIYSQqKNAQgghhJCoo0BCCCGEkKijQEIIIYSQqKNAQgghhJCoo0BCCCGEkKijQEIIIYSQqKNAQgghhJCoo0BCCCGEkKj7vgvAUYcAACAASURBVAIJLwjI7vqAtPa3cHIuv3Wdq+O4X/cU21YDxrYX8bCxDNs2Q5S21GvTsotXw3VoWR72LXN63GhdHoHRYYnilpHDGGNwe/57/w/kXwITwPGeaG8GId+zrzuQMMbACzw8pywCY371GR1WXK3KwsfxZrBD61weN37VFiO94y0EwfvF9Fv9M/zZUAa72/nZ9zOUsa15xEhEyO2WAPAej48TzYiRiPC45RU8Ah+1bYsmxhgaFgaQ2yU5UzDbs5uQ0/URTYtDp96OHZsRmR3v8bRPeertiISdc6FjZQy3qvMQIxEhRiLCX43PMbu35vsc2Dknng2oUDvbG9Fnw8m58UdDKfrWp/z+H47iBQHTuyt41FSOOGkSYiQiXFdlo2FxAI4jwf5L61qdQHbnB6ybd071fMYYdJY9/NP8EtLJ1k+8df4iPY6auV486ZHB7LRFVG/FaD0yO94dG6iMDgukEy24qEhDjESEOGkS8rqlWLfshH3/Q/EIPF4N1+H9WBMFcvIpfN2BxM1zyO+R4q+mFycuj5rKMb2z8u+egqFytB4/1j6BxWX3e52+9WlcUKRhcmfZt6x3fQo/1xVh12767PsZSrBAMrG9hB9rn6BlafhUXyL/BXt2E96NNWLPbg66fkQ3j0vKdHSsjAeEzkgxMDztVeKGOhvbNuOJn291O/BquA431bmIkYjwtFdxqu2I1NNeBWIkIjxqLsf78UY87VPivDwV8dJkv0DVtjyKBJkYnStjYetjjEE53YFYiQg3q3NgclpDPq5pcRDn5Cm4qc7By2EN3ow14oeafMRKkpDV9SFqLQs7NiNuqLPxclhzqnCud1jwbECFa6psxEhEkE58vkBykuO4adnDZWUGyoc0YAj/+TY4LLihzsE5eQrGtxdDPs7mduK3+meIlYiQ1fkB78Yakdb+FjESEa5UZfh9951kn4Z18zivSEXDwsCJn0/IEV9/IMnp+ojfG0pPXP5sLMPUoX+ydfMuLirTUDvbA473oGVpGIuGTTDGkN7+FokyMf5qfIF/ml/ul3I8ai4/9PdLaOf7P/s+H3Y0kHwv0trf4pwsBRvm3YB1Ds6FX+uf4Z/ml8d+WYfCGMPAxgzOyVPQvTpx4ud3ro4jTpqEBJkYfzaWIU6a/NkDSemAGqNbC34hdGZ3FYkyMX7SFMK1/wvVwbnwV9Nz/NlYFvZXq8Vlx4+1T/BHYynOy1NRO9cT9HGMMahnuiGdbPELHja3E383vUCMRISetclTvxen5eY9yOh4h/t1RbCfsJWGMQbVdCfipElIlInxe8OzLxJITnIcW5aGcUGRhontpZA/PHiBR3FfFX6oycfvDc+Q1v42ZDg0Oa3I7voYEPJbl0cQL01Gfo/sdPsFhtIBNa6psrBzimBPyCFfdyBhjJ26u+Zol83LIQ2uqDJgdFqxbNzCJWU6ama7MbmzhHhZMp70yNCwMOArN1TZyO2S+C2b21v/7Pt8GAWSwEAysrWAeGky2o9pAQjH6XHj7+YX+LW+5FS/7rXz/XigLcaqaRtze2s4J0/97IEkWAuAIAhIaa9EokyMFdMWAO8JYkG/gUR5CpqXQndFtS2P4pwiBaumbVSOanGnJh92LrB78uB/MNhJcWBjBvHSZFSM1H/x1rq5vXWcl6dCPdN14ucyxvB6RItHTeXYthkwsDnzRQLJSY6j28Ph57qnSG6rCBkslww6JMpSoJ7pwqJBh4uK9JDdj6Fe3+S04VZ1Hu7XFZ1631bN27iszMCH8aZT10EIvvZA8qlsmHdxQ52N2rle2NwOFPUp8aC+GMvGLdyq9ja51x9p/bhfV4Sa2e6w9ZpddjzpkaFkoOpMfekegUfHyhgKe+X4tb4EKW2VqJ3vRf/6dEAgmddv4PWIFoObs351zOvXUT5Ui7+bXuCBthj53VL0HDM2IBLCfrNs2WA1/mwow+8NpSjokWNie8nvcWaXDZKJFojbKvFb/TMU9ysxtbOM1uURVI7UY+9Q19fg5ixej2ixZNSha3UCT3rkeD5YjaHNObwe0eKHmnzES5NR1KfE6xEtOvbDh8AEZHd9xA81T2B1OU69T6umbVxSZuDdeKPv+Ogse6gcrYdmvhf8oZM/x3ugmunCm9EG33gVngm+9fP6jVMFEgaGYZ13f7vXJv3Cs8Vlx9uxBiim2sO2cghMQGr7G5yXp2LTsndoOcPfTS/wR2NZwOBtwHsSuqspwMthDRhjsLgc+KEmH6+H6yAIQsDjQzk4kb4bazrx58zosOCmOgcjuvkTPe/A+7EmnJOnYH0/tBodVlSO1kM+1QY3H3jMZvZW8XpEi9m9NTAwv/d4aHPuVIFEYAI0c714PaL1O/4H9A4L3o01om15NGw9wY4jYwwvhmpxtSoTG5bAYM7AUD5UixvqbOzZzeB4D7K6PuC3+mdweCL/LjI7bbhdnYvf6p9F/JyjXB4Oj1te4o+G0lN3oRKC7yWQNC0OIlaShHhpMmIlIiTKxBjWzePtWANiJd7BZdr5fgiM+crPdU9RPdPtt+zol+707gpiJUmIlSQF/dKIhLcvvx2xkiSck6fgbm0Bbtfk4Zw8BY+aygMCScvSMGIkIrwZbfA9f2xrAXHS5P3nP8HPdYW4rMzA0z4l+EMnGKfHDZvbGbY4PW6/bZvYWUKiTIzzilT8pCnAXU0BLirSIZ9s8z1ux2bEJWU6YiVJuFKVgXt1hbiiykSCTIy7tU8QL03GvH7D9/jK0XrESEQo6lMiXpqEC4o0/Fz3FLLJNlxUpPkG/J2Xp+KiIg2lA2oA3v7yy1UZeD5Yc6pjfaBhYQBx0iTM7q76lh0MZL6kSIfOqvct716bQIxEhJJ+VdBuidMGEsAbPG5V5+LH2nwYHf+O4ZBPtSNOmoTGY/rlDQ4LLinT/bpsDlSOanFJmR7QysQYQ9V0Jy4p/ffzw0QTLirSsXVoWTjeE2YNYiQidK9NRvQcv223m3FRkYahI8E6ErzA47f6Z/i9oRQc7w0WHoHHHw2liJMmYeHQZ+1gWwt6ZYiRiLBk0AXUd9pAAgCa+T7vcydbA74fOlbGECdNCtkddrBtoY7j4OYs4qTJvkDuew4YtqwGXFKmo26u17d8wbCJc/IUdK2ORxwQ5/Xelqb8bmlEjw9FNtmGC4q0kOO+CInA9xFI7JwT49uLmN1bw31tEbI638PmduJXbQnejzfhalUW7tc9RUpbpa+cl6finqbQb9no1oJfvbzAY2hzFiNb836/uE6if30aCTIx/mgo9Z0gGGNYNm7hbu2TYwMJLwgQt1XgoiIdK6Yt30nT7eGwbTP4fTEdDGILV5JbK3yPd3k4/KotwUVFmrfug+ZknvMbBJnf4/2yV053wL3fBeLmOWjmehEvSw4ZSK6pstC3MQ0H54LV7YBH4OH2cEhpq8Q5WQpWjFtwezhfd8Xo1gLipEmnOgEeltP1Ebeqc/0GNzPGMKKbR4JMjNT2N3DzHvCCgD8aynC39knIwc1nCSSMMdTO9SJWkoT3Y41gYDA5bbhdk4fk1tdhW90EJqBssNp33I9qW/EObh078pl1cC7c1xYhv0fq1w20ZzfjVnUuygarIxoP0rk6jkRZCv5qfO4XYiN1lkCybTXgoiIdb/f/Bw4cBM23Y41+y3UWPS4q0yFuqwQnBHbRnSWQbFn1uKzMwKPmcr/uP4Ex7+dYnoJNc2DryYFwx9HgsOCyMgMvhzR+yz0Cj6I+JX7RFvt1swlMQMWIFjfU2diNYDyHxeXAo+ZyxEpEGNiYiXSXg5rbW0eCTIy+9akz1UO+a99HIAH2m8g353BTnYNV0zYAYN20A6vbgeuqbPzW8Aw53R995aIiDb/Wl/gtO9pNcVa8wCOz4z3OyVMwdeiKoIPtrdv/9RU+kPB41FyOS4p0LBl1YX8Z2d1OmJ22sOXwZc4OzoUfavJxUZGGZeNW0Lr37CZcUqbjTk0ebG7/bhQGhr+aXoQMJC+GaoNuZ6gxJPUL/UiUiTF7hrE8HO/Br/Ul+KOhLGBcBgND5Ug9YqXeX6t1c704J08JO2jzLIEE8Aa3pNbXuKBIxZx+HVmd73FNlQVdkC6AAxaXHQW9csRKRfin+WXAcQeAyZ1lxEmT0LL07xw2jDHUL/TjSlUG1oJcJtu4OIiLyjTM69dDfo443oPutQlcVKTjTk0+lo2BLQ6h9nPdvOsrk9vLOC9PRcNCv9/ySC6zn9pZQaxUhNblEb/l2zYDrquz8bCxzK/rQz7ZhgSZOOB/7MBZAgnHe5DU+hqXlOnYtPzburRp3sN5RSrye6RBuzEiOY4uD4f7dUV43PLKr44Nyy6uqbKgnO4IeJ82zLu4pEyHZKIl5DYzxqCz6vGouRwJMjEqR+ohsMi76oIxOa24pEzHm9H6M9VDvmvfTyDZthpwRZkB7UK/3z+xg3Pjuir7VGNIzsrJuXFP8xR3awtgDXJSWTJsIkGafGyXjXK6HTESES4p0/F6pO6TzU9y0LzvvTQwEx/HmwK6Bg7GuVSOBh/YmNstCRlIukJc4RIskDDGIJtswzl5KpYMW6feJwfnwk11Lh63vAq63uCw4IYqGzfUOUiUi1Exog3bLx4ukFhcdvzZUIY7Nfl+pe3IiXTJqMMlZTpuVeciViKCZq43aABiYJjZW8Od/blIXg5rQg7KXTVtIVYi8hv0yRjDqnEba6bg8054eB4L+k3s2kxB17t5DlmdHxArScIfDaXQO8wRdw0sGjZxXp7qK+fkKYjZ7z49vLx9Jfx4CwDo3O8K6Vuf9t9+gUdW5wecl6f6LuV2cC780ViKe0G6tQ6ECyQenkdax9uA97BiRAvAe0y7Vse9/5Mj9b5lkokWnJOnYHZvNaDOSI8jYwz/NJfjgdZ/8LXZZce8fj1oy5TABKyatrG2/6MrmIaFAVxSpiNelozGxUG/bt3TcnBu3K7O++4G4JNP6vsIJBzvQW63BJeVGdDM9aJuvg/K6Q7M6dejGkhsbifu1OTjgbY4aPP8snELiTJx2EACeL+I6+b7cE9T6PuSfzVcB8ORScPcHg5OzhW2HB0QyPEeVE134KfaAsRIRLiszMD78SYY97ts6uf7ESMRoW6uL+g+hgskPWvBm3dDBRL5VPsnCSS3qkMHEsaYb/tiJCLM68O3xoQLJA7OhYoRLUr6VX7laEsbx3uQ2v4GMRIRzslT/AYAHxCYgM7VcVyuysCdmnx0ro6H/VW7bt4JCCRnsWraxq/1JbigSMXrEW3AXD7HsbrsaFse9RXNbK8v8B1evmU9fnbkrv3Lro8GEgAY315EgkyMd2PeAcuLhk1cVKTh1XBdyPAULpDwggDpZGvAe9h8qOXJybnxi7YIt6q9rYROjxsPG72XXh/9vz7pcXzc8goPtMW+rtCzcHAufJhoQoJMjL8an2N6N3iL0Wk4OQ53avIpkJCz+D4Cid5hxoX92QkPl67VcV8g+bOxDAU9cl+5qEzH7w3P/JaFavI9rYNAck9TCFuQpurx7aVju2yOGttaxGVlxv4kWi/9fhWedAzJYQJjGNqcwTVVlm9AKvBvIAnVRPypAgkA1M33nTmQuHkPHmiLQwYSs9OGm+ocnFd4f8G/Hq4LW99Zu2wAYM20g8vKDJxXpCJmv4XkqO61ScRIRPi9vjSibo3JnWXESpKgnQ8eFE/C7LLhhjoH8dJkDJxizEcwZxlDMrmzFDKQMDD82ViGq6pMmF02SCdagg50PewsXTYHpBOtiJGIMLa1iA3zDi4p0/Fu3P/qo5Mex4Mumz8bn3+SVk/ppHcbn4UYoH0WJoe3y6akX/VJ6yXfle8jkPCCgMHNWUzuLGPbaoDLw/m+KA4CSW7XR1TPdvvKdVU2sjrf+y0L1u9+Fhzvwd9NL3zjB45u84uh2hMHkoN6H2hLcLUq0+9KirHtRbQsj4QtRwfuHnUwuv+mOhd2t9PbrSQT44G2OKAJ2cG58ZOm8JMFkoGNGcRJk9Af5EQUKcYYUtvf4HZ1XsCJXWDeYx4vTUb/xjSK+6p8k6d9rjEkDs6Fx80vcaUqE7O7a7hfV4Trqmy/fXd53PhFW4zb1XkRX8XQvTa5vx9nG6woMAGlA2pcVKRhbGvxk53IzhJINsy7OCdPCRmCNXO9iJGI0LY8its1ecjsfB920PmnCCQLhg0kysV4M9qAihHvFU66Q2NKTnMczU4brquy8eSUk5YddjBvS1bne7hOMQj5OKvGbSTIxMdeGUZIGN9HIAmFF4Qzddl4BB79GzOY2Fk+VT8sYwyqmU7E7k8Jvmf39iVzvAfDujlfS0e4QCIwAYuGTVhcdt97Zee800Tfqs6F/gyX4XG8B9M7K7C7nd66waCz6HG5KgO/aIvB8R4IgoC/9meabFgYhJv3gDEGq9uO8qFaxEmTThxIsjs/IEYiwuDGjO9+RoD3aonz8lRIxptPvU8AoJhs913Fc4Axhu61ScRJk1A2qIbAGBycE7erc3GnJj9oNwpw9qtsZFOtiJcm+77IlwybuKBIg6jllW8OkZndVcRLk5HXLcGuzRS0HLz/B6QTrbggT4140Gkobp7DL9pi/KQpxKppO+hrGxyWE89DcpZA4vS48JOmEMmtr4N2W21a9hAnTcLDxjIkyMTHXkHyKQKJm/fg7+YX+FlTiFvqnIAQcZrjOLWzgjhp0plniGaM4dVIHeL3LyEO9Rk67f1ovPeW8k6Lf/h/ipAT+noDyY7NCHFbJR63vDpTkU+1+b60GGPQ281oWhxEbrcEed3SMwWSef064qXey1rDXRURjtPj8nWl3K7Ow+OWV3jY+BzXVdl4vn9ZZ7hA4hF4PGx8jp80hb59/kVbjDhpEiQTLWcasGZzO3FTnesb6f+45RV+rH0S0BUwpJtFvDQZibIU/NFYhsctr3BP8xT364rwqLn8xIGkc2UM8dJk3FDn4HHLS9+J4uCKot/qS4JOfhWp2f1fi9Wz3b4TgM3twN3aAtyqzvUbeyObbEWsRITSAfUnn4dkxbiFK1WZeNhU5uuyY2Ao7q/av0fNIACgZ7+75rw8FddUWUHL88Eav/c6ubUC9+qeBr0C5yScHu9gxXhpMq5WBX/tv5tenHjGW473YHp3FdYTjkU5UDZQjQuKtKCB28PzeNzyyvs/VZMH/TE3YPwUgQTw3hPLe0sBbwvbYSc9jowxvBtrxEVl+plP8oIg+C7Nv6LMCPkZGtHNnar+gzFQP9c9PfX0B4Tgaw8kya2v8U9z+ZmKbLIVK8YtPGoux3l5CmIlIlytysQ/zS9RMaI9UZfN0T5rq8uBJz0yFPVXBZ12O1J2zgnpZAvSO97hn+aXeNIjw9DmHFZNWyjqU6Lu0Ml/encFRX1KdK95r1ARGEPT0hDye6R43PISya0VKOiVY3Bz9szN6weDZfO6/627uL8Ko1vzfr9MGRhWjFsoGVBB1PIaqe1vUDFaDwfnCjqGpGt1AkV9SiwYNoO+Lsd7oJzuQGr7GyS3VqBxYdC3rmNlHAmyZAyf8ssT+PdGY4+aX/r65nvWplDUp0Tbyqjfr1Sb24nyoVqU9KuwawtsJdm2GVA6oEbj4mDAunB4QYBsqg1F/UrM7PpfiaGz6lHU752l1uVxY3BzFkV9yrClYWHQdzXQ+v6YFPlU25ln6vXuvybsa78da/zid54e2ZpHokzsC21Hda16J7R7PVJ37CWtK0bv/9nREHFSTo8LN9Q5+LH2CUxH7tR70uPo5j34o6EUfzU9P/MdlXlBQNV057GfoaUQ/4/H2bTocU2VhZfDmuMfTEhoX28gOet9bA4KLwgwOqzI7HiPzpVxGJ1WODm3774OB4HkojId19XZYUtBrzxgOwUmfJLpkr3TWQsh73cR6fHiT/n8cPUKEdb97zYIvscFCySRvi4vCAGveTC7aVbX+9Pt0H7dmv05RpbO2KXxtfEIPNLa3+JOdT6cJ5hC/L/Ge5PFEvzTXB4QvHlBgLi1AonyFN+cQ1/CiM47cd/rkdBX9ERqfHsJCbJktC+PffH7BJ2UdKIV8bLkM3cPku/e1xtIvhTvwMsCNIe4KRU5m9MGklAYY2hdHsFlZUbALKQn4fJwyOh4h1+0xTAf+TX7XzawOYN4WTLqv4PBhXN7G7imykLVdIdfK8iKcQtx0iRkdLz7YvdWcXAu/NlQiuuq7DNPn75nN+OH2id42qv44i1PJ8HAMLu3hitVmVBMt3/1wYl89SiQkM/rUweSA+/Hm3BfW+SbD+U0dFY97moKUD37aebqiDYn58Kj5nJkdr4/1V2M/4tqZrtxV/MEq6YtGBwW7NiMyO78gDjp2br1ImXnXNizm6Ge7UKcNAnvxhuPf9Ix3o834a6mwO8Kua+RR+CR0fEO4rbKM3VZE7KPAgn5vD5XIBGYALeHO9OU1wdXNH0rJ2+BMbg93CeZefO/4mCfnZwbD7TF3sHV8hQ0Lgx+kdYF9UwnEmRixEhEyOh4d+IJ44I5+Ex+7S0OjDG4ee+9pj71vCbku0SBhHxe6+YdTO0sn3lgHiHhCIyhZ20SmrneiO9Y/Cmsm3dRM9uDqZ2Vrz5AEPKVo0BCCCGEkKijQEIIIYSQqKNAQgghhJCoo0BCCCGEkKijQEIIIYSQqKNAQgghhJCoo0BCCCGEkKijQEIIIYSQqKNAQgghhJCoo0BCCCGEkKijQEIIIYSQqKNAQgghhJCoo0BCCCGEkKijQEIIIYSQqKNAQgghhJCoo0BCCCGEkKijQEIIIYSQqKNAQgghhJCoo0BCCCGEkKijQEIIIYSQqKNAQgghhJCoo0BCCCGEkKijQEIIIYSQqKNAQgghhJCoo0BCCCGEkKj7vgKJwATkdkuQ2fEeTs7tt657bQK/akuwbTNgencF/7S8xK7dFKUt9dq26iGZbEX32qRvmcvDoWdtEianNYpb9n1ijMHpcYMxFu1NIWfg5jkI9B7+ZwmMwe3h6P/w2/N1BxKBMdg5J2zu0xU37/Grz+py4JoqGxUjWr8vJI734I+GUohaXkEQBLh5Dvc0hXjUVA6Xx310s76Ysa15xEhEyO2WAPC+F5LJFsRIRBC1voJH4KO2bdHEGEP32gTyu2XQ280RPV4z14unvQpYXPZTvZ5H4NGxMoYrVZnYi+A1T4sxBp1Fj+S214iTJiFGIsI1VRZ61ybB77/fAhNQPduFV0MacILnmBq9dVZNdyKj413YL3HGGDjeg9blEVxVZSFGIkKMRIScro8wOaxRPQE4PW6UDqjRtDh4qu1gYBAEAcO6OVyqSseGefczbOX+a0V4HE1OK4r6lBjVLUS0T26PB/e1RVgxbYV9vMAYFg2beKAtRqzE+xm6pynExM4SBCZ8sv08KY/AQz7VhophbcB3cyQYY3B53HgxVIOMjnef9fvPzXNoXBjA1apMxEhEiJMmIadLApPz3/dv2ajDkx4ZJreXInr/dFY9rquysGbeDvs4XhCwbtrBn41lvs/OA20xlgw68EL492/HZkBhrwLDuvn/YmD7ugPJjs2Ic/JU35ty0iKZaPl3T8HwfrwJP9Tkw3ikdWFwYxYXFGkY317yLetaHcc9TSF2bMbPvp+hBAsko7oF3KnJh3a+/5v9lad3WCCfbIPBYQm6fnx7CZerMtC0OHTsFywDQ/vyKC4r00/1T+oReHSujONRczniJEm4IE/9rIGka3UcFxXpuKHOQemAGqUDalxTZSFOmoSMjndw7gdki8uOB9pipLa/gdsT/n9x22bETXUuEmVijOgWQj7O5XEjufU14qXJSGp9jVfDGmR1vkeCTIxrqixMHPr/+JKcnAvJrRX4s7EMNrfzxM8XmIBh3TySW18jQSZGokz8WQOJy+NGevvbiI7jx4lmXFNlYdmoC1snYwwVI1rESkRIan3t+xwcJTABkskWnJOn4IeafDwfrEHJgAqXlOlIkInxYqj22JPa59K4MIiLyjQMbs6e+P/QwbkgmWjB3doCxEhEnzWQODgXklpeI1aS5Hv/Utre+H4cDOvmvOdEQcDHiWZcV2Vjxbh1bL2vhusQIxEhr1sa9ntLNtWGWGkS7mkKUT6sQUm/9/2LlSbh/XhT2NfgBR4vh2txqzoXW1b9SXc92r7uQGJ3O1E13Qn5ZNupyvTOiq8unWUPl5RpqJ7pgkfg0bU6gXXzLhhjyOx8j0RZCv5pfonk1gokt1YgqfU1klpf+f5Obq1Aw8LAZ9/nw44Gku9FWvtbnJOlBD1pODwu/N5Qir+bXoDh+C81o8OCHzVPTnUMXR4OP+1/Ad7TPMWVqszPHkgUU+14P97k94XF8R48bnmFOGkSxrcXfctbl0cQIxFhcHM2bJ2qmU5cVKThz8Yy3NMUhmwlsnNOpHe8w+zemu+EwRhD1+oE4qXJ+KOhFNwpftmeVdea9/W7VidO/Fyry4HfG0oRIxHhdnUeblXnfvZAYuecyOr6ENFxNLts+KEmH7ndkrAn2A3zLhLkYvzd/AIXFGkY1s0FfRwvCCjqU6JmtttvudFpxc91TxEjEWHRsPmJ9jRy2zYjLiszUNJfFdH/7WFDm3NIlKd4j11jGRJl4s8aSCwuO5JbX2PDsue3vH9jGokyMcRtlb7XtrkduF9XhJyuj2H/NywuB25W5yK59TUuyFMxFCaUVY7Wo2FhwO87YMO8i2uqLFytyoQxxA+1A3a3E/c0hUhrfxuV/9cz+LoDyadUMaLF5aoMGBwWrJq2cVmZAfVMF2Z2V5AoEyO36yNqZrt95boqC1kd7/2WTR0KOF8CBZLAk8bY9iISZGK0Lo1EVFfj4iDipEmY2lk+8XY4ODd+0hSiaXEIds6FPxrKPnsgcXCuoL+empeGESMR+Z1obG4n7tTkQdxWEfJL3uS04YY6Gx8nWjCvX0ecNAmNi4NBHyswFrQp3cPz+L2hFBfkqdi2Gk65Z6fDCwL+bnqBn+uehmwVCMfotOJnTSFkk22wuh3I7fr42QOJ9zgGfj8GccFNLwAAIABJREFUO44MDC1Lw0iQiUOGDAB4O9aIRLkY2zYDcro+4Nf6Z3AFaRljjMHBuYKe7FQzXYiRiNC2PHaGvTsd6WQrLijSsGQI3xIUTMfKGO5pCjG9t4JdmwlXq7I+ayARmBB0rJiDc+GephA/1OT7jj1jDFX7gT9UKwljDIW9ctzTFMLqciCp9TX+bnoRcvtDva+v91tYRsJ8Tg7UzfchTpqEiZ2lYx/7Ffk+AonOosdNdQ7UM12wu50oHVDj57qnWDZu4U5NPmIkItTP9/s9535dUcCvjKOsbgdK+lV4OawJGCR7Eh6BR//GNMoGq/FnQxmyOj+geXkYAxvTAYFk2bgFyUQLxrYW/epYNurwbqwRSS2v8Xt9KUr6q3xNi2fBGMPkzjIqR+vxqKkcfzW9QOmAGrN7a36Ps7rsUM92IbPzPR42Pkf5UC3m9OvoXpuEbLIN+kOpfnRrAZKJFqyZdzC4OYtnA2q8HtFifHvJ1ywbL01G+VAtJBMt6FufBuD9osjrluJ2TX5EY0E43oM/G8vwe0Op7wRhczuhnGqHYrodZpfNbz9HdAuQTrT6ms8ZmF84OG0g2bLqIZlogXa+3+8Xi8AYutYmoJhqP3YAddvyKGIkItTN9fktr5vrw3l5ChaC/OoVmICPEy24XZ2HPbsZHoFHQa8cD7TFsLr/z955v6WRvW38H7Wn9002fbO7ySYq9pLYYowaU4yGLiiIBQv23jsKVkTpbcr9/gBMGCmiJmv2+57PdT3XlYwwTDtn7nOeclxxHz/NMPi7vRqXpDkwOU4e6F0+KEW6tu7E3wOA2T090iRZ0K6NB46FRvvqKKRzPWGuV8A/IyKd70Hn6jgYlgHL8u9hcb/wxIKEZVnM7uohnNFiNoKwZcGiSz8B0WwX7J7o1zXaddx3WnFLUYySQXFEMXrgsuG2shjCmS6wLItl8yauyPwuy5O07+bFASQI09G7MR33d4KsHWzhWlMBlvaNJ/4uzTD4s+09XnZ+4L1sNSsjEM5oI5p8XscJUDpwHwHgwGU/tSCxuO2QzHZH/c3jBjkunwcP1eX4vaWEdx4mpwVX5HmoGWuJeD82LLtIFmdCsdAHFiwmt5dxRZ6H8e3lEx1//WQbEoXpmD7S90di02rCBWkOPk20nug3zpn/H4KkbWWEF1uSIhZgdGsRjTOd3LbTCJLZvTXu+wbr3qmPT7nYzwWfXW8q8PsLhelI7/wQJki0gZHyl8k2btvcnh7JoszA9/NxS1mEJFEGSgclZ/YXL+5vIFWchURRBm4oCnE9EKQnmuniPnPgsuGKPA8JwnQkizNwU1GIFHEmkkWZeKAqQ7IoE8vmTe7znyc1SBCm491wE3f9fmt+g8bpjoixQOWDUgCAxWXHVXkeqkYUcR270WpCilgA+byOt/3TeCsShOlonO7gOhAvTeGBqgx3lK+jvqxPK0gohsY/HbVIEKZj2LgQct38neuLjppjR/9142okiTLCYkAsbgcuSXNQP9Ue9h2b14l7LSWoHm3mXnRWjwM3mgpRP9kW98vM5LDgojQHT1rfwkudfAq4uF+IP9ven/h7LMuiZqwZ1+QFOHDZuW0fxlqQIEyPONPTpfe3j/aVyLNApxEkALAUmF36u7067EVodTtwvakAj1srIs6MBIl2Hb20D5ldH/FQVR42xc6yLGrHWnC3+Q33uxRDo6j/G55qKk8UHPq6X4gEYTqWjgwm4mHFvIkUsQALpo0Tf3fHdoAL0uyw/vSppjJq/F929+eIs35nEST6wx2kigXRYw5ntTG/b3L63U7p2vCEgsyuT7ilKIbL5wn73tfpdqRJs7AfMugoH5LiTvObuGOiPJQPTzVvcUmaGzW2LhQv7cMzzTs807yLa/+/CP8/BInd68KQcR7Tu6t4pC5Hbm897F4XnrRW4tNEK67JC/Cs7R2K+4WcXZLm4Kmmkrft6OiIYmjoNqYxYJg99fRh0D/6VPOWEzX+UZARdwOzN7EECc0wyOr5gkvSHKwebHGN2E15sRmIkQmS01N/bCBwZtcn7vNeyv9QX5Rm+/cd2JeH8vGyW8oGpUgQpuPbTCc3cvBQXsjme5EsyowqSK43FaBnfQpOrxtWtwM+moKH8iKr+zPSxFnQH2zDQ3m5TnpqZxVJooy4Ywm69RNIlWSFBWMeuOx4pC7HbWUxLG6HP3tppgupYgH6NqajvqjP4rLZtJlwTZ6P5x3VcPk88FA+ZPd8wTV5PjYsO1FdLizLYnhzHldkebjXXAL7kZkhFiweqsqR3fOF9zJjwUI614MbTQXYDgluY1gGnyZacaOpMK6AbR9NobhfiGRRJnr0kyc+b+D0gsRLU3jeUYM/NO9457Z+uIMLkmw81VTyRqpuyosXnbW4qSiC0xe5oz+tIKEYmgv4DZ0lYFkWsvleJIky0L0W/frEuo4sy+LzpAZX5fmwuh28v23bzLipKAx7WRqse7jeVADZfO+xMRn+rKx+pIoFSNfWxRRN0TiLIGlfGUWqRID1Q352iZf2wUN5OTM7rXjS+hZX5fnYtEW+P2cRJEwgSyfURrcWcUGahbzerxHFRBCH14383gYkCtMjZnqJZruQLMoMO+5tuxk3FAVQLQ3yvhO8noqFvmOPmwUL5WI/kkQZeDMgjisGhwWLL5NtuCbPh+XIM/UL8+sLkgOnFRdOkWlzNACPBYvp3VXcaCqEPuDHXD/cgd3rxI2mQjxUl0PQ/YmzC9JsPFCV8bZN7kTPUDgNNMOgQNeIVHH4S5MFi5algWMFCcXQeNFRg8uyXBisezFHvQ6vGxaXPaY5QmYHXD4P7ihf47I0lwsAPorZacUVWS5uKYvDpqtZsPi7vTqqIHk/qox4nNFiSDQrw0gVC8LcRZHwiwwtrsjyYDyyHxYsBgxzSBFn4uO4Gsv7RiSLMlE1oojZ2M8iSBiWRf1UG1LEmehZn0TP+iQShelQLkbvkGiGxoBhFiniTNxSFGEjio86XVuHJ61v4QwZbZmcFlyV5+PLpCbs8zv2A1xryodwRhszU+vAZUNe71ckijJQMiA+NpsH8F93m8cJk8PCWU5PPZ60vuVtM7usx2aJOb1u3G1+g+yeL1zKM+C/f/m6BiQI07ES8lwZrHu4IsvD6wFR1H2eVpAAgG5jGkmiDAhnv88Oeigf/mp/j3stJVFfaPFcR+3aOFLFAt49Dj7DV+V5EcXjhzEVLstyo2ZTsPDX62hfHUWKWICH6vK46xd5aYp3v0Y2F5AszsSgcfb7dqclrqDJymE5rsnzYYvhzqIYCq/7RUiTZHMu2kicRZAc5dBlw0N1Oe6rSmF1R3YBB5/nnN4vSBJl4N1wU8RZ5971KSSJMniudJqhUTEkw31VadixUgyNfF0DHqkrYs6Oemkf5As6JIkycLf5DbZt8WfODBvnkSLOxLL55G62c+LXFyQ2jxN5vV952S7xWPVYM+8h2HdacEf5Gk0LOt6L1eXz4kZT4alcNmfFTXnxUF2Buy0lEWMiVsybSBZlxhQkwU4r6PaQzHXzOu+zwLIsvk373Vq/t5SgebE/bIp4dHMRCcJ0fBhXRRQswVFhJEHSux7Zlx1JkLCsf8SfJsnG2sHxKXYsy+LDuArX5AURO3OaYfBuuAmpYgGeaN7iqiwPu47YAZuxBMnE9gpeaet49npAxLteLp8Hf7W/x01FIe61lOBZ27uo7iGnz43yIRnSJFn4vaUkZmZEfm8Dfmt+w4uJOXBZMWiYixhnwbIslvaNGN9ejtips/DHDT1QlSNRmIH6qba4A0oZlsX7USWuNxVwliIWIEmUydv2pLUy5ogU8LtCbiqKUNj3LewlEMxYkcz1cNtalgaRKMxAX4wYiViCpHNtPOweVgzJuL8HYwX+6azltm3Z9nFZmou3w7Kw+I+TXMeJ7WUkiTJ5LzSGZTC1s4L5vY2IbevQZceAYTbqTJfD60a+rgFJogyka+uwbTfH7aab29Pz7tcVmd8le0WWx227pSjG2jHpyjTDIK/3K24ri2PG2Q0a55AiFqB6tBl0jJTYWIKEYmjUjrWE3UPNynDYfhiWQdmgFMmiTAwZ56Jel/HtJX9MmzgTDdPtEQNOAWB0awkpYgGviKWPpjC+vRx1AGVx2zFknIs6g7HvtCCz+xOSRZnI6v6Mfaf1RBlK86YNJIsyMH5MFt4vxK8vSH4EwWC+K7I8dK6No2d9Cq0rw1g73D5XQeLPkniDJ61vI3bOQZ/ncTEkFEOjaUHHuXhSxQI0THeEPehBl0gsOzri8dI+NE53csG/1+T5kM33whoQUJrlYSQI06FaGox4jrEEyYBhLuJ3ogkS8Wz3iQRJ7VhLVEECACsHm1zsTeN057GNPZYgmd3T89x7xf1CVI82h11P/yjb78aKFCAJAEbrHv5sq0KaOAvvR5XHFucr7PsWJkhOC80wUC0NIlUiwKPWCgwZ509UTItlWUzvrqFtZYSzZ23v8Fvza9627vXJY0e4lhiCxOyy4rayGK+0df6peNqHp5pKPFJXRHXXALEFSZ9hJuwefpxQh1wbGq/7RbgkzeWyZOTzOqSIBbwaRv7Pnuw6zu6tIUmU8cNmYRf3DbilKMIVWR6+TkV/kUbD7LTy7tfXqXYkiTLwJZCS2rYygvaV0TAX01FohkFOT31UQcKyLFYCQbovOmuODVY/TpA0TneG3cOe9XBXWuvyMJJEGf5Yqgjt3kdTUC72I02ShQeqspgZUIB/QHJUkJyWoMv+vqoMV2R5EM5oQZ0ifXfZ7J/5HSOC5NfC7LLhkjQHCcJ0Lng0QZgO3cY0J0j+6azFu+Emzi7LcvG8o5q3LR5XwUkICpIHqvKIwU0zu2txBbUCwSqGPgwZ53FZmosEYToE3Z95HVFx3zdckubEtHxdQ9hxBEum929Mc5ULg4GlQUEimokcEPYjBYl6eehEgqRxWhtTkDROdSBRlI4Lkmxcbyo4djo7liDxZ3PwLdh2gtAMg6zuz0iVCJAiFuBFR03Y9D3F0HjSWomL0hxMbC/HJQbStXX4XVV6qiq0R89BPu+fHv6nozZmxshJOG0MSTCtOZIgYVkW70cVuCDNhtGyhwXTBpJEGVAu9scUlrEESbR7GMrSvhEpYgE+jrfCQ3nxuPUtnh11D7P+ysAnuY5d+gkkizNPFaNxlH2nFTcVRbgozeHVQjkLp40hYVkW5UPSqILER1P4p7OWcwsfRyxBEmxvx91Di8uO6/ICPNVURp2h7FgdQ5IoE3k9X+GJY7kIXcBlM7y5EPNz8bBsNiJVIsCNpsKwOMCTMLI5j8QjbqRfnP8fgoQKpAoOGGexYdnl5ekHBUlm10d8nGjl7Ko8H+naD7xtoS/VH4GX9uHv9ve4FCE/n2EZ7sUdjyAJxUP58FBdjmvyAuyE1I3oXZ+CcLYrpnUfE7hotJpwUZqNO8rXcPk8nAr/q+19WLCch/LhkbrihwgSABgyziNJlIGROBq9X8AM44IkOyxVkWVZjG4t4qI0G7VjLWhfHUWiMB31k+0/MYaEgXSuB6liATpXx/F5UoMkUQY6QjJFaIbBuxEF0iRZGIwxjXyUPzTv8Ly9+szLHJhd/hfZP521vFiis3JaQeKhvNy5RYpVMFj3cFGagw9jKtRNqHGjqRDbR4pZRTqWs9QhoRkarzo/4G7zG/SuT/lr4uj56aJmlxW/Nb+J+zqyLAvJXDcuSnOwaz9bZWgv7UN6Vx2uyfOhP4weLH1SzhLUKpvrwQVJNnaOxD/QDIMvkxqkSrKgXOiLS3yfNYbE4nbgqaYSNxVFUWuiGK0mXJHn4ZX2Q9zp8X53IT+m6TQwLIu83q9IEQvOXPdKsdCHC5JsbB3TJn4h/n8IkmgwLHMmlw3NMJjeXcPKwdap1ogIdkQJwnSka+tg9TgCJYlpzO7pcTXgt40lSBiWxabVxIms4EzJs7Yq3FIUnamIl4+msHawDU9gISsWLEwOf7DkI3UFvDTF1RjwF1zyT8OzLAu3z4PPExokitJPLEiCAYsTgVLvTGB0vGXbR5okC+KQlONYLJg2kCzKROfaGG/7gcuG+6oy/N5SCpfPAx9NISNQCXUiRu2WswiSLds+rsrzkNH10Z+l5LLiRqDyoslhAQsWFrcdFyTZeNz6FlaPM6LZva6wGKjrTYWoHG468zolA4ZZJAozIJzVRv3904ie0woShmXwZkCEO8riqG6YnJ563FAU4m7zGxToGuCjY7+kzipIAKB1eQjJokw807zDjaZCHLr4M2sDhtlA8Gt815FiaBT1fcMd5esTu1aOsus4wCVpLgTdn6L+diyXVjTOIkgW9w1IEWdi4Ig7Y8AwiwShf40fF+WBm/JyFm1W4qxZNrXjKiQI06FY6OP9npvywkv7+FlT+omo1/DojFjpoASXZXlhz8JJMTttuCTNxZ/t73HgskX8bYfXfexghWJoZPV8we8tpWd+pv5F/n8JEpZlceCyoWd9EpXDclQON51JkKwGGmmyOPPU6wY4fW4Iuj8hQZiO+6oy5OsaIOj+jFuKIrwdlseVZfO8vRpPNZXI1zVwhcmSRBmon2o/UyS6w+vGbWUx/mp/z+37cWDBrubFAe5zw5vzSBJl4oIkGxldH5Gva8Cztnd4oCrD846aEwuSbv0EF1Wer2vg6oj4M4qqeYXOYuHP0ihBXu9XLqODZhiUD0qRKEpH6/Iw17C3bfu4Ks/H49a3UTvs0woSu8eJv9rfI02ShXnTOifuhozzSBX7Uw49lA+79gMuBui2ojiivTpSXGrYuOCv8rl1fPXG4whmdV2R5UX9fcXCyeOqls2bUeNljkO3Po0UsQCzu5G/37o8FHDFpmMgjlmlHyFINq0mJIv9sUcFusawNnbS62h1O/B7S2kgm+hsonLDsos0SRbSJFlRf7t0QHLi/Tq8LoxsLYSlnceDl6Zwr8W/fEMw4H7facF9lX9ZBn+AdxXPXmnrIrogTytIWLDoXZ9CmiQLCcJ0PFJXhP3muxEFGJbl1py5Li+Ieg0HDN9LD9g9LtxWFCNf13DmQYH+cBupYgFSY9y/3N76Y+vP7DstuCrPQ3lIUPZ/gF9XkGxaTbipKMIVed6ZrKhPiLWDLaRr67j04cuyPDxrq0LViIITJGWDEnSsjnF2U1GEN/0i3rbJI0WpbB4n8nRfUdj37VSLfgVxeF34PNmKV9o6/NlWhdzerxgyzmHtYAv5ukY0LXwv7DW9u4Z8XSO6A9PETMBfnd3zBX+2VeF5RzVye79iwDh75ulaiqEhn9eF7LsGRX3fMLK5wGt4LFismrdQ3C/EX+3v8U9nLapGFHD63BFjSLr0E8jXNUaNyfHRFBqnO/FPp78ybMvi94DZbv0kksWZcQf/NU534IIkGxsWfw0E/eE2CvoaUTeu5o2mGdZfArpA14ipKPv+PKnBmwHRiWM1hjcXUKBrhOpIlVWaoVE/1YbX/SIYLXvYdRwiX9cY06rHvgfKeikfXnTUBMqIn31V6o7VsWN/X3eKKp9nwel1476qlLd+SCgG6x6SRBl4qnkXV1py04IOxf3CuFaJjgbF0Pi7vRopYgFvvawgJ72OY1tLSJNkoe2UKxmHYrSaUNwvjPnbotn4Zhh/JP4Cd/mcC3lkcyHmMZYMSuCIEHtj9/qzz6RzPScSb8GA11i/GVxDSrnYf+z9mwmsKcWyfqGTKhFE7TdOgv5w+9jf/jypOTbItW9jBkmijLBZqV+cX1eQ7Dst/obV23AmE81qYXIcIqenHh2rY9i07ePQZefWKggKkkuyHF6aWyQrGRSHHSfF0D9k9UwW/iXL3ZT3VCqbYRl4KC+8lO+HrgLsdyEF9h2Y0ox+DH53kY+muM9FEiTx/q6PpsJ+0+J24LayCMX93+Laj9FqwlV5Pj5HqMfxX2dyZwWJQv9Mz/8y/kDbzIgCtjuwwKAoTjfej8C/CnkW/m6vBs2eLcXeR9N43lGDJ61v4T4mDfq/zNK+AUmiDChi1N35L+KhfHjZ+QF/t7//Ze4fzTBI19bhN+XrMw2Uz4FfV5D8W7h8XtxrKUHH6tjxHyacmNMKkmiwLIuWpUFclefFta4GzdD4OtWOW4pi7P73luOOio+mkNtbjwfqsh+S7vsrs++04ndVKV73i3jin2FZ5PZ+RZok619dwbZ1eRiJwgyol4eO//AxdOkncEGa/V9KzTwVNMOgZqwFt5XFMJ5hmY1fCb8baBpXZHkY2Vr4IdlMZz4mloVmZRhX5Hlhqej/AYggIfxcfrQgCfJxohV3ml8fuxQ34O84Cvsa/dVMTxHQ96vBsiy+TLThtrI4rvLv/wuYnBbcVhZDvTwED+2D0+dGa2BF04qh8KJkPxqaYeD0uWGwmnBbUYxbyqKIRedOgsPrwn1VGapGFD+smOGvjIfyIqPrY9gyB/9V1g62cVWej4bpjvM+FI5d+wHuKF/j44T6h86U/0sQQUL4ufwsQUIHXFTxvogohg58/j/XSMNgWX9J8JMsrPa/gJem4KF8eD+q5BZJK+xrjLuK7FlYMG0gRSxAojAdd5vfYO1w+8wxWkFX6M8WU78KLNhAO4zt+v2v8L1P+XXuX/CZ+hFhBOcAESSEn8vawTbGt5d466wQCKfFXwl2FQ1THXEXjvsRWN0OfJvWonV5mDzLBMLPgQgSAoFAIBAI5w4RJAQCgUAgEM4dIkgIBAKBQCCcO0SQEAgEAoFAOHeIICEQCAQCgXDuEEFCIBAIBALh3CGChEAgEAgEwrlDBAmBQCAQCIRzhwgSAoFAIBAI5w4RJAQCgUAgEM4dIkgIBAKBQCCcO0SQEAgEAoFAOHeIICEQCAQCgXDuEEFCIBAIBALh3CGChEAgEAgEwrlDBAmBQCAQCIRzhwgSAoFAIBAI5w4RJAQCgUAgEM4dIkgIBAKBQCCcO0SQEAgEAoFAOHeIICEQCAQCgXDuEEFCIBAIBALh3CGChEAgEAgEwrlDBAkhPoLPAYEQCRbk+SAQCGeCCJIfzczuGp53VGN8e/nYz5qcFnyb0cJNef+FIzs9JqcFhX2NWDIbz/tQfhosy8LmccLitoM544vV7LTiSetbdOsnT70PD+VF5bAc7aujpzqepvk+fJnUgGaYUx9DLNpXR6Bc6IePpuDyeVDY14ixraVT7Wv9cAcvtR9gtJri/o7T50FRnxCDhtlT/ea/yabVhOHNedg8zhN/d9lsRO1YCw5ctrC/HbrsyO2tx+jW4rH72bUfQLHQBy8d3m9P7qzgr/b32HUcnvj44qF7bQJ5vV/hocJ/20P7kNtbj37DTNTvm5wWfJ7QYMdu/inHF4s+www+jqsjtsFdxwHydQ0wO63/+nH9j/LfECQGyx7aVkfQvDQA1dIgJraX4aOpuL574LLimrwANxVFeKAqO9ZuKgpxS1EEl89z4uP00D5kdX9GkigDkrnuY0eMK+ZN3FYW8zoql8+LpgUdhDPaqCaZ7YbN4wAANC/2o3RQEmY2jxPrhzsQzXbF3Jd0rgcunwde2ge3zxPRjNY93FQU4ammEgcuW9TPeSgvWPy4UbLD60L1qDLi+Z3Eakab4TlG9K2YN3FZlosbTYXYO2PHvOc4xGVZLtTLQ6feh8G6h6vyfFSPNp9q5qF6tBn5ukZOkFAMjc61cTQvDcS07vVJ0AwDH02hSz8BZ4R2wLAMXnTWIk/3FT6agsVtxwNVGZ5oKmFxO2IeF8uycPk8vHNaMG0gVZyFFfMm77M+mooqxuxeF35vKUXr8jC37cBlg3p56NhzHDTOgQn0ayanBVM7q5jYXsbo1iI618bQsTbK7Uc634tvM1q8G1Hgdb8Qf7W9x72WElyS5uCqPB/7Dsux90I4o0WyKBOze/pjP3uUj+NqXJLlYNu2H/a3yZ0VJIsyoVjoi7kPhmVQN66K+GzbPE481VSiqO/bD227ocjmenBbWQy3L7wNLgfa3bxpI+r3l82bSJNkx7x+nyZaw9q9amkQDMuiZ30yZh8onNFy4vooioU+JAjTIw4uqkebcVGag/HtcCHOgoWb8mLHfoCJnWW0rY5CMteD4n4hbjYV4ctkG5lRDOfXFiQsWKiWBpEkykCCMJ1nWT2f42pAQUHSH+dIqnd9CreVxTxBwrIsDl12mJ1Wzg6ctrDR56BxDiniTLzuFyJFLMDykQ4WAJoXBlA6IEHpgATZ3Z+RJs1Cke4bt619dRRPWt/ilrIIt5RFuKEoRKIoHRel2dy2ey0l2Lb5Rwv5ugaUDIjRsz6JnvVJfJpoRYIwHXuOQ/ToJ5EsysRNRRH33aN2X1UKs9OGwr5vYdf4pPZb8xu4f+Bzcei244nmbdgxX5XnIVGYgVsh53VTUYREUTquyvPCPv9UUwmXN7rAtHtduK18jTRxFpJFmcjvbTjTzEJQkPzZVsXd10gmneuBl/ZhwDDL3b+gVQzJkCBMx9ep9rC/RbIh4xyvQz0qSNw+L35rfnPsPXykroCH8mHFvIlUSRayuj+HddRze+tIk2Zh1bzFbVu37OCSLAdtKyMxr43N48RVeT6kcz3ctmiC5NOEBvdVpRFFUSRBMm/aQJok+9hzzOz6BJphwLIsasaaY342TZKFW8oiPG+vRumABIqFPgwYZ2F2WuMetJxWkNg9LtxSFqF8UBrx71+n2pEoSofBshd7P14X7jS/RsWQHAzLf647Vsci9q8JwnR8m9Fyn2NYBorF/qjPsmyuN+rvxxIk70cU+EPzLmZ7i0eQPFSXQzzbzbWHl521KO4XgmYYZHV/RopYELMffNZWFfH4fDSFfzprcUmWg137Abd93bKDVIkAX6faI76HTA4LLkpzeNczVSzAi44a6Dam4fJ5QDMMBo1zUdt07/oUHF5X1HP+H+TXFiQmxyEuSLPxdaodi/sG7NgPsLRvwJsBMRKF6Xg/ogTN0DH3ERQkD1XleNlZe6w9UJWFzZA4fR783lKKNHEWLstycUGaHTbamN3T41rBP7zkAAAgAElEQVRgRGvzuPBK+wHPO2rCRuaty0OoGlGgakSBAl0D0iTZKBuUctvGj0x7z5s2oip0ACjQNfBGSGNbSzxBcqOpEHZP7IeaZVks7hvQb5jhrH11FO9GFNBtTPO29xtm0GeYRumgBM1LA7ztY1uLP81FEMrUzjKuyQvgCulArG4HbjQVYMg4f6J90QyDor5vSBZnYmxrEW0rI0gWZeLTROupjy8oSO42v8Hz9uqoVjvWAqvbid9bSnFZlstZsCNLFQt422PZE81b3kzbUUFyGmRzvUgUZvA6XYfXhXstJbgsy0XZkBQVQzLOsnu+8P5fMSTD2JHR48zuGi5IsnliPZIgcXjduNdSgrpxVcQOP5IgOQ2HLjuW9o3YsR9gx34Au9eF1YMtvOz8gBRxJrr1ExF/+ySzCScVJJtWEyqGZMjq/oxEYTpeaeu46/llsg0+moLd68Ld5jdIk2ShQNeI4n4hz1RLg9z+OlbHcE2ej/XDHVAMDf3hDgD/LNwtZRE+jKuh1U9wVj4kRaKI3+cwLIPPk5qwZ/iv9vdICwjXaBwVJIcuO7J7vuCfzlpclObguryA63/fDsnhoXxweF2we/w2vbOKNEkWRjYXuG0Oj4vX9z9urcDqwXeBXD4k4wmSvN6voI55VwRx+zyoHWvhrnmBrhEvOmq4/5cPyXBHWYyL0myUDIi57crFft71Gt9ewujWIhb3DbjRVIjPkxre77h8XtxWFiNVkhXWni9IspEqFnD36v8Jv7YgsbgdmNpdDdvu9nlwr6UE1+UFOHTbY+7jR8yQBAWJfF4HABgyznOChGVZHLhseNxagaeaSlgCx3PotuG+qhSC7s9RfceRXDYsWDAsA4qhQTE02lZGkSBMx/K+kdvGsAzXIf4IQRLE4XXjt+Y3+DajhW5jGnebS3BVng/xbDc2LLs4dNsxubOMp5pK3FYWo1s/Af3hDq7K83+qH9Xl88DudXE2aJzFVXk+TA4Lt23bto/rTQXoXZ/ifdZ5xD0Qipvyokj3DcmiTHyb1oJhWfhoCsX9QqSKBVAvD8XdiYVyVpeNemkIqeIsTByJQ2JYBjRDR30ZCme0EUe6V2R53IzaSfDRFAp0DUgSZaJ3fQosy6J3fQoJwnTcUb7GU00lZzebCpEsysTj1re87dq17y90lmVRP9WG28piOLxubvtRQcKyLMa2FpEqzsLivoF3TDk99RHP8V5LScQYhZPgprwYNM7hmjwff7ZVYeuIm4RiaIxvL+GaPB/fpjvCZhuicVJBMrun567xI3UFZ9fk+bjXUgK3z4u21RGkRLjej1srkCTK4GZVDl123G1+A/Gs34XcpZ/AFVkuFvcNeKX9gBcdNVxfx7Is9p0W3Gt+g/JBWUQxezS43eXz4PeWEnwcV2N6dw2Sue4wE3R9wkVpDhqnOyGZ68bsrh7imS4U6BqRJMpE5bAcX6fa8XWqHaqlISyYNpAsyow5c5UiFmBmd407jh8pSGweJ67J83GjqZB3/WNZmiQLOT31EffnofzCI5ogkYXMFgYZMMwQQRLCLyFIYiHo+oQ0Sfax/v6gIHmkrsArbd2x9lBdHnWGJJIg0R9u476qFPdVZX6BEvKymN3TI1mUiXRtHReUZrDsoaj/G7Zt+zxBMmCYRcWQDCzLon11FM87avC8owZ3lK+RKEzHH5p33LaWpUGuUyjQNaBqRIHJnRVM7qxAMtf9QwQJ4J8yXto3oGxQilSxAL8pX+OCJBvyeR0OXDawYI8VJGaXFe0ro8fGcMSiQNeIh+pyzm4ri5EkysB9VRm37feWUiSJMvFb8xveZ3N7v0acWndTXrzuFyFRmI7a8RbeaMvl8yCntx5JogwIZ7Qn9q2fRZDQDI0/NJX4s62K99IGgNblYbzuF8EbJX5qz3GI2T09Zvf0eKqpxD+dtZjeXcOCaQPeU76sLW4HXnTUoG9jGlaPA4/U5UgQpqPryIxdcBTsijDtHcTt8+J5RzVSxQK0Lg9x1/WoIKEZBiWDYlyTF2DfyY/R2LDsYnZPj279BC5IslE3rsbsnh5LZmPcAiESO3YzXnZ+wBVZHjpWx+DwunkvXofXjTcDYqSIM5HTU48d+0HcMQCnESRJogyMbC3CR1OcNU534F5LCcxOG/5sr0JG18cwd5rV48A1eQHKB6VgWBYNUx24rSyG2WXDgcuGO8pivB9Vom5cjetNBVg73ObOg2ZovO4X4Q9NJQ4jBNGaHBa8H1Xw2vK23YzL0lx0rU1AONOFq/L8MLsgyUaiMIP7v259GgDwabIVD9Rl6NJP4M2AiAvuXzYbcUWWh0HDHGb39NCsjCBVLEDz4gBm9/ToWZ/CJWkOT5A8UlegdXmI6wcF3Z/OLEhaFgd41z+WPe+oJoLk7Pw3BYmX9uG+qgy3FMXHRq7bPE7k9X7F16l2tK2MHGtfp9pR2NfIa3SRBMn1pgKolodwvakAD9XlER8cFizGtpZwW1mM600FWLfscKOfpX0DT5A0L/bjkboCLMvi24wWNxVFaF4cQOvyMJQL/WhdHoZqaRD3WkrwcaKV60TydQ242/wGf7W9R5IoA4/VFXjZWYtDtx09+kmkigX4s60qqttgaf975kxQkDRMd2J6dw3yeZ1/9Ksowut+EWTzvXgzIMYNRSEyuj5ibHsJawdbMQVJfm8DEoTpZ5paD75c6ybUqJtQI6fnCy5Jc7j/102oUTbkF00lA5LANhUet77FI3UF78XOgsXKwRaetb1DiliAunEVPJQPLMvCS/ngpSmwLAuL2x4YwWUgu+cL1g93wl5Ads9390WoXZLlcPEHkdwrtxTFMLvCrxfDMhDNaJEmyQpz3QHAl8k23FeVHTsTYPe4cENRxLlsaIbGysEm5vbW47INyy4XTMqyLLy0Dx7Khzf9Yi7e4DSCZGnfiEuyXPzVXoUUsQBTOysAwgWJwbLLjVBfaevChD4AjGwuIlks4J4rL+3Dgmkj7nMMXn+nzy80EoTpuKEoRON0J5SL/fg204mqEQXyexvwd3s154JTLw8d6yY+SnDm6pG6Imo7LBkQc+IiKEgmtlfC9nOvpQTq5SFckGRjZHMh7JkMFSRe2oeH6nJckefh7/ZqPFCV4ZI0B8qFfiSJMpF0zCxE0IIBtdu2fdxRvkbtWAt3rAOGWVyU5mDtYDvq+UeKIfFQXjxUl6N1eQjq5SH81vyGa6fLZiOuy/M5UXQ0hmTbbsYVWS5PkNxXleEPzTvcD7jWX3TU4NtMJydILsty8XeUa18+KAVFf7+nQUHSeoIBxYuOGp4gUS8PxbymNxVFOHQ5iCDh898TJCxYqJeHkChMR9WIIuoohWJolA5I8EBdhnstJbivKsVDddmxdl9VinstJXigLoNopgtA9BmSAcMsBF2f0KOfjOrbv95UgCHjHLICrpt4BUnwRbpi3sQlaQ4mdlbgobz4p6OWJ0gmd5axdrCNbZsZl6S5GN1aBMXQYFkWPfpJXJLlQrnQF0F4tSFFlMlLTw4KksYZLdRLg3jcWoGJ7WW4fB6/m4j1u5NcPg86VsegWhqE/nA7piBpmO5AkigjrjToaDzVVPIarWZlBL81v+F9ZsOyi1uKImwFXBMMy6JqRBEmSNpWRpAqESBBmI6mBR03qvbRFJ61VfGCOGmGQfWoMhDPkYW6cRVvlOUP0MxD2aAEBsteXPZ2SI4LkmzsR7heqwebSBRmoGxQGvG5jleQ9G1MI0GYjnxdA7yUD3avCw9V5UgWZcZluT31YSPvjtUxJIsyUahrRIIwHa+0H/BuuImzv9qrcEGSjYphKbetdqyZGzCwYFHcJ8S9llKYHId4oCrHvZYSOH1uniDx0j782VaFZ23vsGkz4UZTAZ53VIelq9aNq5EgTOfcajuBkXo855ciFqA54O+naBoPA7M+SaIM3GwqxMvOWpQNStEw3YkL0mwkCtNRPdoclh0UL0FBclWehxuKwoj2qvMDd47HCZLFfQM+TbRy7TKUoCCpGlGAZhgoF/rQujyMlsUBXJHlQrU0CJvHiZbFAfzeUsrNBjm8buT01COnp577f5d+kidIWLDo0U8hSZSBAeMsWJZF7VgL7jWXwOJ2gAWLmb01HLr4bvRIgmTIOIfbyiK4Kc8PEST9hlkcuuzoWB3FfVUZFzQaFCRPWt+idXkorB/M7a3HU00lb9bxRwgSH01x13HIOI8EYTo+jKm4bU6fh8yQhPPfEiQsy0KrH8dFaQ4eqsu5eI1I+GgK/3TU4pW2DorFPigX+9G00IcHqjI876iBYsG/TbnYjz/bqpDeVcf9X7nYj6eaSlSPNgM4PoZkw7KLjxOtEe3LZBvMIdOfJxUkS/sGJAjTMba1FCZIvLQPo1uLcHhdnJsg9MUfy2UTbOSRBMkDVRkK+xrjsoyuj7gkzYkqSFiW9c9AnCGlMFSQsCyLD+Mq/NlWxfvMyKb/ngRdY0cFyZ7jEPm6hoCrpxRjW4u8Y/LSFB6oyvBPRy3vZcywDHrXp3CvpSQwyi3nIt+DguTDuCruc/k8qYkoSFw+D5cNsHKwCYfXjXXLDs/eDslwR/kaS/tG3vbtkPoMLp8Xz9r84uCZ5h3uq0qhWRnB+PYSBo1znPWuT+G35jcQdH/CgGGW97cF0wb3omNZFhRDY+1wG1UjCu75faZ5x3sOHqkrkCrOQm7vV27bmwExlwbcb5hBqiQL7aujAAD94Q6uNxWguE+Iie0lTpColgaRLMrEoHGOiyW5Ks9HZtdHWAOp7gcuO35rfoNUsQAvOz/glqIIo1uLGN5c4J2HZmUYFyRZqJ9q420fNM7xrpnd6+LEAMuy2LLto3q0GakSAXJ66zG5swKGZdBnmEFub/2J6qUAp3fZRBMkbp8PFEPjeUcNivuFcPq+C+6gIAkNyqYYGuWDEvzTWcOJWYfXjQeqMug2prnP5esakK9r4P4/YJjjCRLAH7/3SluHx61vcei24+/2ahToGuGjKWzbzLgozcG7kSaeUDoqSGiGRlb3Z/zeUgrlYj8K+xpxRZYHyVw3RjYXsbRvOJEgsXtd3L+1a+N4oCrjBMZxLhvhjDaqIPk61R7WBqPZU01lVJfN+xH/oObTRCvvd4ggCeO/I0hcPg8+T2qQKEzH7eZirFuiTxEC3wXJx4lWbvo5+HBWjSh5DaZ8UBrm3yvuF8YlSE7KjxQk+04rrsjysGze5ATJkHEebsoLmqFPLEgohsbEzjKGjHM8GzDM4pG6AreVxdBtTPP+1rI0gFvK4p8a1BoqSPz3tQa3FEXYtpu5ehIfJ9S431LKjciPChKXz4NnbVUoH5JFrDcQTZB8vzYUasaaMbDxPTj6RwkSiqHxdliOBGE6LklzcOCyoWd9CiliAZJEGZwlBqZ7Q7cliTLwd3s1t6+p3VVclOZA0PUJub1fUT/ZhovSbExsL4NiaPgCLikP5cVTTSWqRhRcMG+kDjuY9iia7QLNMNAfbp/YZeOiPHikLscfmne8NEbZfC80K8OYN60jVZyFqd01PNVU4u2QjNc+u/QTSBVnQbMyDJZlIZzV4nHrW9xSFEE+r0NW9ydck+dj22aGl/Jx57HnOMRlaS7n2nBT3qhxJkE3XeN0Jy5IsvGHpjLMDWEMZKXcVhZjy2b6qTEkwWDk600FnF2Q5nCCJHhdkkQZ+Dz5fcbU6nbgmjyfEyQsWMzu6XFZlovJne8C57SCBPDXe7mlKMJjdQUuSLK5mBAAaFseQbI4EwOGWe6YjgoSiqaQ21uP28pi3FYW47IsF0kifxp/1YgCi/sGXJXnY/VgC/tOK0a3FpEmyUK/YQb7TivmTeu4LP0uSBb3Dfir7T0AvyAJ9gMeygsqIH5OI0gSI7S1aJYgTI8oSLZtZlyV5yNRmIE7yte4ryrl4qKIIAnjvyFI9Ifb+Lu92h89PiSNWLXwKEFBcq+lNNDQGpGva8D1pgL81vwmZFsjbiuL8XtLKff/fF0jbimKfqogyev9ivzeBqRJslA6KMHf7dUxBcnsnj4uQfJ7SymetVX589tPKEiiMb27ikvSHPRtTIfNdHgpH/SBdMKfRaggMTksuCbPx/2WUlyS5qBbPwEv7cNf7e+RJPLXgPG/eMJdNlaPM2pBveMECRCeYfAjBAkLFvJ5HVLFAlyR5XKC5MBlw+TOCiZ2ljkr7hfilqIYw5sLvO3BTBSGYfwpoH1CvBtpQr6uEW7Kiz7DDJw+N3Qb00jXfsSm1cQTJC6fB7m9X6Fc6A97ye45DnFFlsf97TSCZH5vHTeaCrGwv8HbP834s8VCXTYmx2GYS8pHU5gzrcNHU7B5nPi9pQRfp9pxr6UErcvDcHjdGDTOwUv7UD3WjLJAhkmoIFk2G/Fn+3tMh0zzA34xOLmzgpJBCW4GXrLatXHs2MyYCwQIT+ysQLU0COVCP/J1DVyA5qBxLq57flpBkq9rQN24irO/26t5gsRL+VAxJMMFSTaGjPNg4S/0dlmWxwmSTZsJ91WlEM5oYfM4sbRvwMjmAidIygYlUC70Q7nQj8etFXjcWsH9P1gLJ1JRNtXSIBKE6XigLoczpMaPj6bwR9s7PFCVcRmQRwUJGxDAXsoHL+VD8+IA7ihf49BlB8XQWDYbkSLKRKpYgFSxACnizEBmTWbg/wJels1RQZIqFuAPzTu87PyAQ5ft1IKkZqyZ186GNxegXhrkbQvaQ3V5mCChGBrlQ1I8bq3ADUUh8nq/4knrWzxufYt1yy4RJOH82oKEBQujdc+f4ttUgC79RNxT/xRDo3JYjtKQBncSK+xrhGzeX+znuCybVLEgZgBTTUDYAP5Yh6DoeaWtQ6rYny4WDMA8KkjGt5eRIEzH6sFWXIJEPq/D7J4ehy4bevSTSBJl4oosD1fkfAsGXoYKkqoRRVxBbpHM3+GcvLptPAQFCcuyEM9245o8HxuWXVSNKHCvpQTDxnlclOagdqwFNxVFKBuUwk15I8aQRCMeQXKUoCA56bUKFSRze+tIFmUiq/sz5PM6TpBEIlYMCcuyGNlcwLUmf72JSJVaBd2f8bC1HA6vO2yGpEDXiNuKYp7/nwUL6VwPrsryOPEdFCRvh5vQsTrGWVFg2l29PMxt69JPcBlO/pTxFaRr6/Cy8wPPnmoquUyyo3972fkBnWvjXD8km+/B3ZYSGK17YXVItm1m3GgqxNthOQC+IDE7bZyLKFQUGa17uHCkmFqKWIBUcRauyvP9wa5NhfhD8w7P2vyZLcGYhLSAC+q4INef4bIJ4qa8eNb2Dnea/fcu2A9I5rrBsAxKByTceaVJsnBbWYzSAQknSO42v8GztqqIdjdQSC+SIFkwGZAsysBtZTG2bWZev6xdG8dFSTaGAoItVmE0ABFjSK7J82G07MHmcWJqZyVQh8Rffn/FvMlz2RwVJHeUrzG5s4J50wY8lL96drIoM6wPvCLPQ5okiydIgmUc3JQXLMvC6XX7MwpZFs2L/Vxl1qPC3eS0hGUSzpn0uCTNgTRw/p8nNTA7rf7g5o4a2NxOIkj4/NqCxOJ24F5LCW4rirFl2z9RQBnLsrB6HPg0oUHdmOpEVj/VBovbzr2Y4hEknWvj2HMc8mzbZsaT1kqeIAkl1GXj8nm4Bz9UkGiWh5EiFsDksMQlSI7GkFyT52Ny2z+KDrXO1TGkigVhguSBqhybtn3uHPzT5QKMbM5jz3GIHfsBtu1m3nlWjSj+FUGyYt7EBWk2pAFxQjMMjJY9/N1ejWdtVfBQPqwdbuGKLA95vV9RNij5VwTJ635h2PWNZqUDEp4gcfncqByWw+pxoG1l5EyCZMg4j5IBcSAYly9IZvf0SJNkYXRrIaLLZmxrEYnCDC7Gw39sHtxrLkGBroFre0FBckmay3MnXJTmIFGYwdt2t7mEl7Y7t6dHoa4R+b0NPHvZ+QGJogy86vwQ9rf83gb0rk9z/ZBkthsda2MRC6MpFvqQKhFw9SiOumykc91IlWRhJaTCLMOyGN1cxNK+EbuOA+w5DrHvtGLfacX64Q4uSrPRtzENN+WFO+ACoBkGdq8Lr7R1get9foIEAGb21jBvWgfNMLyBCcuymDdtYGJ7BTv2A5hdVtg8TngpHydItGvj3LkdtZndNeT3NkRMAS4OVKNOFQuQ01PPeyYphsKu45BrR6cRJCeJITkqSCLFkLzsrMX83npYe6wcbuIJEh9NIV/XgJxAYLdwRosnrW8DxdrceNL6Fr81v+G10UOXDXdbSvA2pBKuh/Lhr7Yq/KF5B4vbzgkSlmWxbTdj7WCLzJCE82sLkgHDLJJEGdxMRSxYsDA7rbzOwe3zomG6A7VjLf4ceFkel4N/1GrGWnBfVYYEYTpedn7g+bqDguSWsgjPNFW411ISJkgiLSxG0TT+bHsflyDhziNEkNi9LhT1fcMlaU7cMyTxBrV6KC/WDrbgDHlZV40o8KT1LbyUv3HuOg7wQFWG+pBKnY3THXjRUQNTyBoenyc1UQWJj6ZgcljOtGDdU41f1P3ZVoWH6nJYA4GSLFh8mmhFqliAiZ3v5x3slF5p636qIHFTXvRtzMDksHBFpUI7ELvHiW79JHe8gL9zbVkcAMWE/8ZZBAngf953Hf7y1qGCxOXz4J/OWvzZVsVNWx8VJF7ah4yuOvzeUgKr2/88Tu2sIknEFymncdkcR7TS8ZGwuh1cobxQQWJ2WnFbWYzyQSknwkIFCeAXWPdVpXjRWRNWl4ViaNSNqyCd7+ECXA+cVlyS5vgDoFkW2rVxvB2WcwXTnD53XK7Kny1IQtmy7XO1gmIRKYYkEh7KC9XSYEiwOIO21VFclOZAvTwE4YwWqRIBtGvjUWevjwoSq8eJ9tVRKBb60Tjdieft1UgSZuCSNAcvOmowb1r/4YIkmsvmwGWDwbrH9U97jkPcbCr093ksy/VtwdkPg2UXd5SvIZnrAQsW65ZdLJuNaF8ZRYo4Ey1LA2DBos8ww9VKIXVI4ubXFiSiQLrcPx21KO4ThtnrPiEmd/yVXDXLI0gQpiNDWxdxxDIdCPZ72fkBu/YDf8XLwCh713GAFx01SBULUDPWHBb4FhQkf7W/x7vhJgi6P/1wQeKjKSzuG2APCCGWZTG5vYxkUSYuSLJxU1GIHbuZN0sUSZCMbC7A5fPAR1MnLowWKkgohsaLjlrcVBRi0bSB9cMddOkn0DSvQ5okCy87a7nF9GIJkvejSiQKM9C3EX01z+N4qqlE/WQbXnbWYiOkgWpW/LNHNREWoIuW9huNkwoSlmXRtjKMNHEW5kzrYFgWOb31eNL6lqtpsLC/gRSxgLe+S9mgBKkSQVgVUODsgiSUUEEyZJxDiliAjtUx7u9HBUno8crme7mUzjRJFgzW72ulnLcgCRIqSIIvjmvyAl72zFFBAgDfZjqRLMrEgul7BViH140XHTVIFmdCPNvFtf9QQQL4X3xXZHm4JM3B3N76T63UGkyVZ1iWs2/TnccKEoN1D2mSLGj14wC+Z0m5KS8sbgcGDLPI6v6Mub31uATJvsOCi9JsTG6vcAGyyaJMFPY1AvDPhrxor8EFSRY2bZGzj44KEqPVhOtNBbgsy8V9VSket77FTUURjNY90Axz5hmS+6oyLpDdR1NxF0bzz6L14JIsBzs2v7A/KkgAvyhmWRYs/G3kkboCLp8HJQNipEqyMLO7BovbAdGMFgzDHCtIhDNaOH0ennXpx4kgCeGXECSfJtQxffGJwnSus29Z9AdZ/dMZ/YVy6LKjYboD15sKIOj+hOoxJbK6v+CqPB81o81YPdiK6BY66rKZ21tHbk89Dl32MwmSJbMRN5oKIZ/X4XlHDW40FcIU8NUv7htwW1mM7J4vMDutyOr+jJuKIkyGjJr2nVbOX1w71oIUsQD3Wvzl3r/NdJ5JkDg8btxUFOKCJBtX5fn4q/09V8CpcrgJd5Sv8WmiFTTDxBQkwWqooaPskxJ02RytRUEHSnlHut8/W5BY3A48VJfjlbaO62gntpf92QAB8eX2+f376dqPYAKj9mBdmXfDTWH7DAqS2T19xKJ9Wd2f/QX5lgbD/ta7PsW7PkFB4vC68Vf7+7DKr+4IgsRNeQOxEv5p5ofqcrzorOXNJgQFScN0Bxb3Nzh7P6LENXkBJndWeNs340iRPasgMbtsuK0sxruRJt5LZ9dxECZI1i27SJNk4f2oAiz8Kft/tb9HsjgTPeuTvJm8o4KEZVkYrHtcevaHcRX3ovJQPm6dlaNWP9mGZFEmby2WaEYxNBfU+rLzA299mkfq8mMFydj2EpJFmehZnwLN0Gic7sQrbR2uNxUiUeR3qVUMybDvtOKBqgy961Mxr/PE9jIuy3Kxaz/AktmAey0lgcU9vwvqJbMRd5tLMLO3FnEf36Y7+Vk2DA2bx8ndq2gxJJtWU8S1bFYPtsIEyUN1ObRr48jq+Yw0cRYeqstxWZaLuT193ILE4rbjpqIIFUNy7j3weVKDq7I8bqAYiofy4UnrW5QOSAD428+Ljlr83V4dqBHDBj4XW5AkizKRJsniWdAdRgSJn19CkJwEFiwM1t2wh45iaP9aJ3YzVg+20DSvw72WEqRJsnAnUAr9lqIIDVMdmN3TY8Oyiz3HIaxuB5w+d0SBEkpQkFyS5eBaUz7f5PlIFmVGFCQMy0I618uleubrGnDgsoFmaIxsLuCiNBu3la9hDIxO7V4XnndU44I0G8Ob86AZGk9bK5EgTMfFQDrgs7YqVI0oMLa1DDflRY9+EhelOWiYao+4xkTQgp3LUZdNNDeLv2T8NgxWf9DZu5Em3IniI3b5PFg0Gc60yNvRwmjRcPrcMFh2YbDuYd2ygwztR/zZ/j6uVVlPIkgohkbViAKpEgEvayMYcxHa+XWujSFNkoWFwPLqNMOgcrgpUN1yizfNHRQkioU+XJblncietFZGXVxv32nBtm0fHsqLjcD1mdlbw1VZHmrHWrhnnGVZzO3pYfU4sH64gweqsrBFHVmIEnUAACAASURBVIOCxF+F9vjjet0vRNO8LrxthNgVWS6X5hrrc7VjLdxxHJ0hWTvYwqHbDpvHyZ2jenkIKWIBr+otw7IY2ZyHh/JhcmcFV2R5uNtSAv2hP8XX5nHCYN2DwbqHAcMsUiVZXEXZ0Pucr2tAsjgTLztr4aa8qBmNvWpwPJYkysDkzgonSO42l/DWqbnRVMgTJEbrHsa2l7BkNkJ/uIOpnVU8UpcjRZwJ/eEOGJZB/VQbMrs/Qbs2DqvHwd1rp8+Dx61vUdwvxOrBFvSHO2G2tG/E09ZKPGmthNXjXwTyRlNh2Owey7Kc4Ab8gfsT28tYMG1gZGsR15oK8EBVDh8dWRBEEiQpMQrbJQWK283srmEucK2SRP7Mpweqcrzs/ADhjBarB9ugGP8MyQNVGUSzXTH7wUHjHB63vuUVXFMu9iNBmI7mxYGw6yOf70WKOBN9hu+zvyanJaz/OE6QNE63w+Ky86xjdZQIkhD+c4LkKLuOA/zTWYtH6gpOeKRJs1DU9w0jmwvYsu1zQmViexmlAxIuH/6SNBc3FUX4s73q2BTjoCApG5SGPeCiQAn4aIKkebEfOT312LLtc9O/Rusersjy8EfbO95y14B/VP5X+3vcaymBy+fFvGkdKwdb2LUfRKwiOWCYxQ1FYcxO/lpTPsYDK7IeFSSx2LGbcUf5mlP4JQPiM60lEot4Bcm8aR0XJNlcp5UkyvCvmRJH/MpJBMmGZRcXpFn4OtXOO2eG8Wc1FPZ949wqbp8XtWMtvBRxm8cfXf92WM4TakFBsm0zw+SwnMjMLhvvWCKt9muw7CFRmBG4Phm4IMnGinkz6vUJTnmHEhQkysX+uI7L6nZgbk8f80UQr40GZiqA6Kv9DhnnkSTyn2OiMB2PWiu44myhsCyLAcMscnvreWX8+zamkSoRcN//Q1MZNjMH+GfnNCvDkM71+IOrrSZMbC+fySa3V7hqzvHEkEztrIYtQpcmyUK3foJXWTkSDMtCtzEdlmF01K7I8jC+vQSGZSCd68Hcnv7Y9iSd7w3bj3ZtPOrnIwmSq7I8zO7pOXEYauPbS7gciM9w+jwYNM5h/XAH+06rv85OiMinGQav+0XH9oHXmvKxZduHl/bxxJXd68KbAXHExf6Cg4dIz0coJIYkbv53BYmX9qF+qg2fJzXo0U9GXA8jEnaPC9O7q2ia16FLP3FsMKbJacG7EQXWIzw4NMNANNsVNsoM4l+9lQnbNrQ5z6u+GIrZZQ2r5/Cj6DfMomleF1egno+m/DElC33oXZ+KGKT5oxgwzMbVMD2UD8tmY8BdYIirXk0QiqFRP9UeeMEcf/5mlzVsGje4UnM87NoPwp7HxX0D6qfa4fwB2UoDhjl0ro7xjsdHU1ja91+fpX0DL6A5XkxOCyqGZNyMz3nhoXyQzPWEHYfb5w1kUGxgxbwZU1werSsD+GfZlgLfX9o3cgu+/Zs4fW4s7hvCXI1eioLT6+aeG5qhYfU4uONdNhv9A5MzVEX+ERy67ZzLbsW8CfcxMU/Tu6v4NKnhRLzV7UCXfiJqrJTL54ZWP86rgP0r46MpfJxQh8XRsfCnFUdaLJNiaDi8rjPNLP8H+d8VJAQCgUAgEP4zEEFCIBAIBALh3CGChEAgEAgEwrlDBAmBQCAQCIRzhwgSAoFAIBAI5w4RJAQCgUAgEM4dIkgIBAKBQCCcO0SQEAgEAoFAOHeIICEQCAQCgXDuEEFCIBAIBALh3CGChEAgEAgEwrlDBAmBQCAQCIRzhwgSAoFAIBAI5w4RJAQCgUAgEM4dIkgIBAKBQCCcO0SQEAgEAoFAOHeIICEQCAQCgXDuEEFCIBAIBALh3CGChEAgEAgEwrlDBAmBQCAQCIRzhwgSAoFAIBAI5w4RJAQCgUAgEM4dIkgIBAKBQCCcO0SQEAgEAoFAOHeIICEQCAQCgXDuEEFCIBAIBALh3CGChEAgEAgEwrlDBAmBQCAQCIRz578rSLZt+0gQpuPPtvfcNpPTgr/bq/FpohUMy5zj0YWT2fUJCcJ0rJiNP3zfLp8H86YNWNyOU++DYmiMbi1i02r6gUcWmW3bPno3pqDVT6BbP4nFfQNo5vv98tA+LOwbcOCygQX7w3+fZhisHWxh/XAHLHu6/bNgYXE70LM+BQ/189vCrv0AOsM0tPoJdOknMW9aB0XT3N99NIVlsxE79oNTnxOBQCCcI/9bgmRiZwUJwnTcbX4DD+U9x6ML52cJEpZlUT3ajFuKIpid1lPtw015kd/bgBRRJnr0kz/0+EJhWRbSuR6kSbKRIEznLEUsQOmgGDTjf8F6KB8yuz/ilbbup9zHRZMBl2W5UCz0nfrlvXKwibstb3BLUQSr5/RC8DhYsGhbGcElWQ7vmiWLMlHY18gJNoqhUT4kxUN1OZw+9087HgKBQPhJ/G8JEg/lg2ZlBPOm9XM8ssj8LEGyYdnFFVkexLNdYE7wcmVZFtO7q6gaUeKiNAfJokwkCjN+qiDZcxziqjwf70YUGN9ewvr/sXeW7W0jbRv+o0kKSRm223bb3dJ2wQ5jQ22alFOUGcIOMzOzQ47tmC1Lmuv9YFu1YkhSeNLuO2eP+VDhaKRoTs/cM9rbwuDGLNJb3yBFIYdysi34vIFgdncN5zS5MMx2f9NWEqffg9/rnyCzrfrIsuPnWNTN9yGr/S2SGRlSFHJc/s5CYvM6karOQnmfGv3mGazYtzCyOY+stmAeXg7Viq1LNq8T12tKUNarlrSeUCgUyk/Af0tIfmS+h5AEeA7/trzCnYYKsBx3pH15QUBe50ekqrKQ3voGnyaav7uQ7PncWLCao5bbvC6c1+bhki4fLtYrLn82aESqKhNm57frRqqZ60GaOhtzu0e/DztuO1JVWTivzcOniRakt77+7kLi9HswvDkXtdwb8OOasRipqizs+Vzi8pq5HiQzMoxszn+3PFEoFMp34OcQEgICi9uO5qUhtC+PwhPwxRQSXhDg9HvgDfijjuFmvehdn4JhphujWwvwfcOuAJbjMLI5D+NsDwbMMzHPv19IFm0bqJ3rxeDGbNwYBIEIWLCaYZjpRuvyCLbd0viAiZ0lpCjkqJ/vF5d5A344/R4EhGhB8bA+uPwe8IIAgRBM7axgwWYGIQR1831fLCTiOflY5wyui4wR2Q8hBPcaK5GmysJuRLfT7O4aUlVZYCZaEp7fzwXwdrQBXasTCbtgCAgemp7jr+bn8AVYEELgZn0J8xcsMy8EIsDHseg3z8Di2UOA55DZVv1FQsJyHJx+T9xnkOUDcPo94GKUZyThZ2rHbReXbblsOKvJweM+zZHyRKFQKMfMjy8kbtaLkh6l2G9+UpmOE8p0vB9rihKSZfsmkhgZMtuqxWUsH4BhthupqiycUKTjlDIDyYwMdxoqYlagR+XDmAkpCjlSIo59XpuLAfOMpHIMVx7daxO431gZupYMJDEyXNIVYHhzTrL9gtWM23XlSGbkOKXMwAlFOlJVWZixrIrbfBxvxillBtYdO+Ky+oV+JDEyPO7TSAJ7F2wbOKPORkbrm5jC9DVCEj7nox5F1DnPanLwl+l5zHOGcfm9uGoowjVjMTzs5/gHN+vDrbpy/N38IuH53awP14zFeD1Sn7DbatNpRZo6C7VzvQCCz/bb0QYkMTJ8GDdFyQzLB3DVUIR7jZVRcRlfIyRmhwVp6mzcrC2Fm42O93jUrcA5TS5W9rbiHiPAc7hVW44z6hw4/B5xOSfwyG5/h2vG4v9JsC2FQqF8I35sIfFzAchbXyGJkSGv4z02nLuwePbQtjyCM+rsQwlJz9okTiozUNTNwOKxY9fjwJpjB8rJVomQNC4M4JqxOGGStbyKyqO89TUMs13YcQePPbq1gNOqTJzV5sDi3hO3CwvJZX0hKgcM2HLZYPHsQTPdgRSFHKmqTLECcvm9uFFbilR1Fka3FrDrccDi2UP36gTW9rbFY2a0VuOqoUhSqfk4Fg+aqnBKmYGJ7SUAwRaMuw1PxcDXWDEZXyMk4XOejDinj2Nxt+EpLunysevZixsHQgiBYaYbSYwM78YaJVJACMGTPi0u6wsSCs1hhUQ33YnTqkys730WOLvPiQvaPFyvKYk6R+fKOJIZGdRT7VGy8jVCQghBZls1TiozMGtdk6zzsD5c0RfiL9PzuC0oBARNC4NIUchR3KOMuua25VGcUmZg2b55pHxRKBTKMfJjC8nI5jxOKNKR3/Uxahhv/XzfoYQk3JLStTp+4Lkq+nUJ0/sxU9R+Dr87qrJ6PVKHJEaGvvUpcVlYSIq6GUnlTEDwYdyEZEYmdk0s2TaQzMggb3kVtyLnBB43a0shb30tjk4Js+Wy4qIuH3+ZnsPD+tC8OIQUhRwNC/0xjwV8nZCEzxmuSD2sD50r40hRyGGY7Yq7j0AEdKyM4Zw2F7/XP4k5bLllaRinlJkJhyMfRkgEIiCn4x1+MTyKqujzOz/ihCId8xHxLSzP4UFTFa7oC2H3uvYf7quEBABq5nqRxMigmmyTLA/fq9blkZj3nhCCPvM0zoRaWKze6JFV63s7OK3KRNvyyJHzRaFQKMfEjy0k78YaQxX7dNS6Taf1UELSuDCAZIUcmW3VcLPeI41EOQyEEPCCAD8XgCfgh93rwtvRBiQzMrQsD4vbhYVkdGsh6hjL9k2kqbKQ0/4eAGD1OHBOm4sTinQMbcyBE/go6fEG/LiiL0J5nFiBD+MmnFCmw7Q4hF+Nxfjb9DxhF1UiISGEwBvww836JInddzz1VLt4zhs1pfjb9BwsH/2cEBBwAo/XI/WhVqMCbDqtMfM1urmAZIUMg+ZZcRnLc3gxWIOiLgZFXQzyOj7gtCoTN2tLUdT1SVzeszYp7hPgefzZ9Ax3GiqiztG5Oh6Ug6nPcrBg20ASI8OLoZqY+TpISHiBjyovT8AnirXFvYdUdSb+qK8AFzHc+UZNKa7XlMTsbuEEHh/Hm5HMyHBOm4tF+0bMvNm9LpzV5OBlnLxTKBTKD8iPLSRFXUwoEDTWyAwn0lRZBwrJns+N3I73SGJkOKvJQUmPEiOb899ETAgIOlfHkdPxHr8ai3EqFBOSHJorIpaQxBplY3ZYcFaTg39DXUKEEJgWh5AaGo77T/NLaKc7wEZUUjaPE2fU2XGFxOn34G7DU5xSZeKa4RG23baE15JISPxcADdryyTzYCRFtOiEcfm94jkv6wvjnnNlbwt/N79AMiNHaa8KloigzP0s2jZwSpmB/ojWJpbjUNj1CQ+bnuFh0zPcbwx2F13WF4jLHjY9R/PSkLiPL8DiqqEoppDYvE5c0OXhXmOlKFCa6Y64AgkcLCRjW/NR5XVa9bmlhxcEPOnX4qQyHXO7a+K1JjMyvB6pizrehnMXGW3B4dH5nR8Slpk3dK3PBo1xt6FQKJQfjB9bSPI6PyCJkWHFHh3cZ/U6kKrKPFBIwrQtj+J2/ROcVmYiRSHHp/FmSVfHjtuOkc35hClyfhNCCLpWJ5CikON6TQlUk22Yt5rh5wLQz3TFbSGJJSTrjh2cUedA3vJastzi2UNe5wdc0hUgiZHhVl25OKLCzXpxSVcQV0j8HCvO73HN8Ag2rzNeMQM4oIUEBE6/B3telyTt7/rwcwHxnJf1hVHnJIRg02XFzZpSpKmzYVocTJgnAJjbXcdJRToGzNGtZGEO02XD8gHcbaiIKSRAMDj5hCIdUzvLEIiAv0zPcVlfGDPoFDhYSDiBjyqvPZ9bMppnzbGDM+psvBiqgUAEaKc7kcTIMLmzLG5DQGD1OnCnoQKpqizUzPUeOC+Lm/Xhsr4wbusOhUKh/ID82ELydECHJEaGgY3ZqHULVvOhumwi4QQeS7ZNXDeWIkUhl8xFoQtVBonSjZpScXs/F4Cs5RUu6gpg9UgrXvVUe9wWkqmd6EnbxraWcEqZEVMuBEJg97nwajgYl/J2tDF4LTyP6zUlyGp/G3PI6odxE04pM6GZbkeaOhv/NL+QtLDs52tjSABANdUunvNM6JyRXQ8Ovxs3aktxzfAI646dQ82S2rU6gROKdMzursXd5lAxJIKAjLZqXK8piTlni8WzJw6XXbCacVqVmXAm16+NIQGAgMDhn5aXuFVXjj2fG3+anuFWXTl8EcG1btaLW/XluKQrwILVfKhPImy7bEhVZ0E33flF+aJQKJRj4McWEtPiEJIZedQQVoEQVIeGax487JeLqlTejQYDXSNjDI6KJ+DDH/UVuGookgwJ9bA+PGiqiiskr4ZrJb9wWZ5DeZ8GSYwMbSvBIERO4KMCVedDApbX8UFc9rfpBW7UlEa1VJidFlzU5iOjrRq+gB9vR4OxOIlaJL5WSMxOCy7rCsVzKiZakMTIxCG2ANBvnkaKIh2qqfZDHZMQgtcj9TinyYUjwXd6DjvK5t1oI9LU2TG7O3iBR3rra9ysLUVh16fQ6CVvjKME+RZCQgiBcbYHqaos6Ge6cFqVGRV8PbK5gBSFPGZAdTwGzDM4oUjHZGjEE4VCofwE/NhCYvM6cUmXj2RGjtyO93CxXrhZL570aZCmzjqUkCgmWvB+rAm+gB+EECxYzbisL8BpVSa2XInjKhLB8TxyO94jmZGhol8Llg/AzXqR0foGqaG8xRKSk8oMPB8yws+x8AT8yOv4gGRGjrsNFaJYLNrMeNj0DGuh4amcwKOiX4tkRo66+T7xmK+Ga3FalYntiOtwsz78aizBOU0utlxWEEKw47bjrCYn+N0V3+c5KyL5GiEJn/OsJkc8p9XjwFlNDi7pCsTRM2FJyWyrxtN+Xcw0sf25u8LHsbjX+BR36isStqYcVkgWrRs4pcpA50r0iCtCCGpme8Qp4R/1KBJe87cQEiDYVXhGk41Tygxc0RchsG/Kd8NscEi0vOV13DKbjGh1EwhBcY8SF3X5cLGx7zWFQqH8gPzYQkJAsGTfxEPTM0nXyb2Gp2hbHj2UkOhnupCikEv2/6P+SXAisq/8RsqaYwd/Nn3OW4pCjop+rTgSIpaQ6Gc6cVlfKO6TzMhR1MVI4i3MDgvOa/MkeT6jzsaHcZOkNabfPI1kRo6u1Qlx2ZvQyBVtRHM9IQQdK+M4oUhH+neYGC18zk8RQa7hc55UZogToz0fNB7YLRY56+yKfQtn1Nl4NRwd5PklcDyP3+ufIKfjfcwRR3s+N34xFCGJkaE/QcwK8O2EhBAidk0+6ddGrf800XxgmTUuDIjbW71OXNTlI7/z4xfniUKhUI6BH1tIxDwg+It7wDwDi9t+5C+0+rkApnaW0W+ejjnXxdcgEAKzw4KhjbmETfz7WbFvYXBjJm7QpCAI2HDuom99Cmt7O+LQ0EjcrA/XjSXIbIsdR/IzQwiBcrIVJxTpmI6YnfZreTvaiPPaPKzHmNfEzXrxq7EYN2tLE07E9i0hhODlUC2SGRnG4ozoOQrtK2NIUcjR9h2/SUShUCjfgZ9DSCjxGd1aQJo6K+5EWj8rWy4rLujy8Hqk/pvK1o7bjou6fFT066QT1BGC+vl+JCuC3WL/q7K0uPdwTpuDe42VXz3Vu49jcaehAv+0vPim32qiUCiU/wFUSH52eEFAaY8KN2pKYT9gaO/Pgp8LoKibwZ2GCjj93z4OonN1HGfU2ehaHRdb29yhYOSrhiLYff+bcuQFAe/HmnBSmXHgTMIHwQk83o+ZcNVQhC1X7EnmKBQK5QeGCsnPDkFwFtV5qzluwOrPhp9jsWA1Y9fjOHL33GHgBQGr9m2sOywY3ZzHvcZKXDEUIVkhC87z8R3OGYmfCyCzrRq36h7jpDIDWe1v4f/KFo2AwGHJtoHNUFAxhUKh/GRQIaH8/2bWsoo79RVIb32D9pXRQ83z8bWwHIfs9ne431iJD+NNcB0h9ohCoVD+o1AhoVAoFAqFcuxQIaFQKBQKhXLsUCGhUCgUCoVy7FAhoVAoFAqFcuxQIaFQKBQKhXLsUCGhUCgUCoVy7FAhoVAoFAqFcuxQIaFQKBQKhXLsUCGhUCgUCoVy7FAhoVAoFAqFcuxQIaFQKBQKhXLsUCGhUCgUCoVy7FAhoVAoFAqFcuxQIaFQKBQKhXLsUCGhUCgUCoVy7FAhoVAoFAqFcuxQIaFQKBQKhXLsUCGhUCgUCoVy7FAhoVAoFAqFcuxQIaFQKBQKhXLsUCGhUCgUCoVy7FAhoVAoFAqFcuxQIaFQKBQKhXLsUCGhUCgUCoVy7Pz3hYTlA7B49sDy3FcdRyAEvCCAgMRc72K92PU4wAvCV53nW+JmvbB5nRBI7DwfB5zAY9fjACfwx50V+DkWNq/zm+dFIAR2nxNu1gtyhLL3BPzY87mPtE8iCCFwsz74ODbmMT2sDw7/wecjhMAT8EMgsZ/tPZ8bHtZ36HxxAg+zcxeBOH+ThBBYPQ44/J6EeROIgD2fG1yc4zj9HnhY3zcrz6/Bw/pCf4tHez9wAh/3/gV4DlavI245Uig/Gf99IRnZXMBJZQYmd5a/6jh1830o7lHCz8W+7jcj9bigzYfN6zjU8VRTbXjSrz1Sqho0YNNpPXSeXwzV4KqhCG6/91Dbr9i3MLmzLEkzu6vgBB4sH4DT70mYXH7vgS/cBasZ57V5UEy0HntFwUy04JwmF2aH5Zse18P68FttGZ4P1RxJBlVT7fi3+SU4/ssFyRdgMbWzAgIClgsgp/0dFJNtEAiBi/WifWUUvCBAIAKeDujwl+kF2DjPdBiX34uHpucY3JiNuV7W8gofxkyHzuOMZRWpqky8G2uKKfg7bhuu15Qgr/NDwsp2dW8bVwyFGDDPxM1XQdenA6/PzfpgmOk+UmpZHjmSyH4YM+GyvgAOn/vQ+wDAyOY8/m5+Aasn+r0ytbOCNHU2pnZWjnRMCuUH5ccWEkEQ0GeexoPGKiQxMiQxMpxSZaK8V411x86hjrFfSMwOC06rMsXjJUp5nR/FFo9ng0Zc0hXAG2BjnieRkBBCol68b0cbkdf5MSrdbXiKE4p0ZLW/jVr3qFuB9SNUnpUDelzQ5sF1SCHJaHuDa8Zi3GusxL3GSlwzPsIFbT4cfjf0M11IZuQ4pcyImy7pCmDzODG4MQvT4lDM1LgwiKuGIpxUpsMw2x13u561ye/W2kQIwbx1HWc1OfjTVIXe9Sn0m6cTpiXbRsxj8YKArtUJjG0visvcrA/XjMWoHNBLhGTLZUP32gQ8AX/MYykmWvHQ9FwUEj8XwM3asgOf0+s1JfCF/h4bFwdwUpmBkc15+DkWDxqr8HqkHrwg4N1YE85pcrFgM4PlArjfVIX8iGc8ZlmBYMA8g7OaHMxYVjG6tYCRrXlJulVXjqJuJmr5yNY8dtz2qGMKhMA424Mz6mwMmGckfxtu1odfjcV40FSFXfde3HwJREBFvw6/GB7BzUY/39tuG85ocqCeaj9QfDedu0hiZHjQVBXzb3J/ul33GL/VlsHPxX4XxOLtaCPOaXKPJCQEBBX9OjxoqsLK3lZU2WpnOpGikEM70xm1bmJn6YdqraVQDsGPLSR+jsWtunLca3gK3UwX9DNduN9YiSRGhtt1jxHgD87DfiFh+QDmreuY3V3D1M4Kfq9/gj+bnmF2d02SfjUWfxMhIYTAONeDurneQ7UItC4NH/nFFY+jCklmWzVMi0PwcSx8HIvGhQGJkFzS5WPdYcGuxxEzWb1O+AIscjs+4KIu/6vSX6bnYA9xf78ET8CHh6Znh5LScCrv08Q8lov14rfaMhR2MeKyWEJCCMHHiWZc1hfA5nPGPNZ+ISGEwOp1YsdtT5isXof4bPkCfvzb8hK36x7D6feIQtK0MIg0dTaGNmYhEAKb14mLunxopjsO6BYheDFUg/tNlZi2rCBVlYUUhVySkhgZkhlZ1PIUhRy6mS4AgGG2B9eMxWL6xfAIJxTpuKjLlyy/Glp+VpMrWX677jH2Iv4mrB4HLusLUDVoiMozQTDPZzQ5WLSaYfc69yWXpCUvLCSmxaEY20YnZqLlfyIkLr8XVw1FqJ/vx9vRxqiyTWbCZR9d7lf0RXHfVRTKD8qPLSScwGPGsip5efg5Flntb5HEyNC2PHrgMRJ12fgCflw1FKGkRxm17nbdYzzu04oVypcICSEEvetTOK/Nw/3GSrj8HkxbVnBGkx03hVtvzqjjbyNreSU2F3esjMXd7qQyI+GxLusLYYn4FZrZVo32iDJtWR6WCMllfSG8cX7dR5Utx6Juvg8r9i2Mbi3gUbcCDQsD2HLZxArQzXrRujwCWcsrTFlWYPe50LgwcKQX/VFh+QCqBgxIU2fjmrEY6a2vse2ywc36otKGw4K7DU9xTpuLsa2FmMdbd+zgjDoHqql2cVksIWF5Dg9Nz5HVXi3phlixb8E41wPjXA+y2t7imrEY+plu1M33weaNLS4HseO2Y2pnWdJCYnZY0LI0LG7Tb57GCUU6yvs0YCZaJKlpcVB8vvxcAH/UPwEz0QJe4OGJUU4Pmqrwarg2ZhmGr3V4cx6vhuui0rMhIy5o83C9pgQvhmtjbvNquA7vRhvhCfjFso0ljWfU2ViybcHqdeCMOjuuXF7WFcAV0aoSFpI79RXIbKs+MN2sLTuykDwd0B9JSAghaFsexUVdPjacFrB8IKpsBzdmcUKRjsGN2ah1noAvbrwbhfKD8mMLSTz616eRxMhQOaCPuw0hBAIhGNyYw0llBoY25uAJ+GD1OmB2WsALvCgkj2P8+r1d9xjPBo3i/48qJIQEm7qTGRn+qH8iVuSTO8tIYmQY2piLeZxELSScwCO34z0eNFaJFcaOew9dq+MxU3rra6Sps2FaHIy5vndtSvJSzWyrRsvSMDiBByfwMC0OfbGQ2LwOnFZloX6+H4QQ9Jtn8EfDE5xUZuC3ujJ8GDMhVZWFS/p89K5NgiDYjXJBmwd7jIqYgEAgAgI898WxJ4QQKCdbcUKRDtPiEBasZpxWZeJJvxacwIsvcEIIlu2bSFNlIU2dhdE4MgIAg5rlEQAAIABJREFUHatjSFHI0bDQL+4fS0i2XFacUeegdl7aUmZaHMRZTQ7OanJwQpGOFIUcZ9Q5uKwvxOzu+pGub21vB6dCEhovnVZlYctlRXb7O5zX5uFWXRlu1ZXhZm0ZkhVynNPmoqibAcsHQEAwvrWIS7p8WEP3xM+xWNvbkaQ7DU/xtF8rWbbh2JXEWIT/Hvcnm8+Jy/oCvBlpCMW2xN7us8SGy9YAq8cBWyg1Lw6JQtKyPIIkRobhzfmoMirqZuIKScfKOPxc4MCknmqPEpIAz8ET8MdN2e3vcFaTg22XLe423ojAYV4QkNX+Fjkd70Sp2/U4JGXcsjSMFEU6WpeGJcstnvhdXRTKD8zPKSS1c72hF8hY3G0Ms90o6mZwp74CyYwMqaosnFSmI4mR4ZqxGHafC96AH1f0hXgxVCPZVxAE3KwtixKSc5pcjG4uYHZ3NSKtwcP6JELCCwJq5npwXpOLv00vsO2yiceJFBLDbDce92nE1G+eFoVk22XFm9EGyfpl22aUkCTiS2JIfqstwz/NL/BP8wvcrC2VCMlZTQ5qZnvQuDAQM0U2qe8XEqvHAc10B27VluOEIh2/1z3GKVUGcjreo2dtEpzAJxQSXhDwfqwJ9xsrsWTfPNT1SPfn8WE8KEHMRAtYPgCBCOhbn8IFbR4y2qqx6bLCx/nxcbwZF3X5uGoowoxlNe4xBUKQ1/kBKQo5LunzYXYG43v2C4lABFQNGpDEyFDUzcDHRUsdJ/D4s+mZpMvmqLhZH9pWRtGyPIKmxUHcqitHEiNDRms1TEtDaFkeQfvKGHrWJnFCmQ51RKuO0+/BRV0+VFNt4jIfx+LPpipcrykRg7nDz2+aOlsUqf0pVZWFC9p8SfyI3edCWa8KRd2MJKW3vkGKQo57jZVR68KpuEeJFfuWpGxfj9RL4nP61qdxJhTgea/xKf5qfg5fjBaMREJyUZePX40lB6ZzmtwoIVFPteO0KjNuCndtJdrmnDYXG45dAMCW24ZzmlxUDhhESSnqZkLdWbHL/awmByeVGchuf/dFzw+Fcsz8XELCCwJW7Fu4ZizG7/WP4454AYKjWP6of4IbNSVIZmR4OVyL0a0FSf+xzevEGXU2qkcbJPt6AyyuGookIweeDRqRxMhwQpEuSadVmRjbWhSFZMO5C2aiBSmhwNT94uDyezC0MQuHz43WpRG8H2sS09j2oigkOy47dNOdkvWbTisWrRuYsaweqpXgcZ/mSEJS1qvCp4kWUfj0M10Y21oAx/PQz3QhRZGOq4Yi/GJ4JEkXtPlIYmSY210TjxUWEsNsNx51K5CqysJvdeV4OVwjCse2y4aSHiWuGorwcrgWs7trcYUkwHP4y/QcKQo5ulYnDnU9+1mwmqGYbI1qyh7anMMlXT7OanJwLRTDkN/5MWGMEgHBsm0TaepstC6N4O+QwNm8zighmbGs4qQyA496FDivzUNJjxLefVJidliQqs7CQ9NzBHgOAZ5D9WgDstveHiq9GKqBnwu2angCPrwcrsE5TS7S1Nm4qMvHvy0vse2yIcBzyO54hyRGJmkZ3HJZkarKQuvSiLisd31KDJrdLySR93o/navjUUJi8zqR2/EBGW1vxCRreYWTygxc1OVLlu9PWe1vsRgKKk4kJGmhv+WrhiKYHZaYI76Kuhlc0RdKhMTqdSCj7Q2mLYcbrdKzNoWKAZ2k623TacXQxmzMNLAxg7sNT3FWnYP2ldG42w1vzsHHseAFAWU96lArsFRI8jo/JMxbeZ+GCgnlZ+XnEJLcjg+401CB3+uf4II2D3kdH7AT0eoQCyE0tDFRDElYSBSTrZLlYSExznaLy54NBvu6561mrDl2xLTu2IGPY/FmpB4nlRm4VVeOk8oMqCbbDuzeWLCaJS+kTadVFBKrx4GJ7SXJeqffc4RSA9Jb3+BmbVlCcYvEF/CD43ks2zejKp1gUGsBLO49uFivJHWtTsQVkqoBA1qWhmGc7Ub32gQG972EBzdm0bo8gvaVURhnu3FOmxu7y4YQ7LjtmLGsflWw636R4wQemukOXNLli90aJxTpeNTNYMO5G1f8AjyH/K4PuF1XDhfrxdzuGlIUcjzu08DNeiOEREB66xvcqC2F0+/B4MYsTqsyUd6nFsVIIASvR+rFkR5Vg3psu2xRQpLV9hYXtHm4qMtHVhwhmbas4GZtKW7XPcayfRP3GytR3KOErOUVLukLUDffh8u6Qvzb/BJ3GirEIbGjW8G/k6lQpUxA8G/LK6Qo5DGFpLxPLZHlyJTX+SFKSGIxurWAE4p01M71Hvr+HdRCsmjbxK7HAeVkKz6Mm6L2L+pmxL+Jin4d7jRUfHVqXR6OOk8k3oAfvxiKkKKQJ2xxCzO+vYgURXpMIblZWxq33N+PNeGP+idUSCg/Kz+HkJT0KPHQ9BzXjMU4rcrEvy2v0LM2eahWgkRCEm6q1YdGAoTxsD5c1hdGCclBMSRJjAy/GB6hZWn4UBMgvR1tELtH/ml+gZalYVFINp27KOpmJOsXrGbJ/uFWm69Jqaos2DwOWD0O5Ha8h93riisk8WJIhjbmorZ3+j3IaHsjyX84pamzcUqZgb9MzyXL7zRU4IwmJ6aQfCs8rA8zllW0LI+gpEeFU6oMpKqykN3+Dl1rE5ixrKKkR4lLuoJgAKS+AOW9GtTM9aJjZQwDGzNws170m4O/yOvm+sT4iE8TzbhuLMa0ZQXXjMWo6NdBMdmKs5ocjITiGXhBgGa6A6eUGXg/1gRO4GH3uXCzthS/1z3GH/VP8JfpOW7VPcba3rYk77wgILOtGrkd76OGdBJCMLQxizPqbOR1fsCWywpPwI9/ml/g3VgTWD6AZ0MGVA0aMLkTFN1z2lxshcReO9OJM+pgjAMhBC1Lw7isL8Sn8eaYQnKnoSLmvf2n+QV+qy2TCInN60TNbA8Ms92SFG4hqR5piFoXK41szotCktPxHl1rE+gOperRBjGGJBwrlKrKgmlxUFJWRd0MfqstA8sFMGCeQePCAG7XPUZOxztJ92Npj/LALspwCncnxWPFviUKRvVoQ8J3AyEEOR3vcL+xErfqyqOE5LwmN265/9P8Ahd1+VRIKD8rP4eQcAKPAM/Bz7EwOyy4XVeOFIUcTQuDB+6bSEgWrGYkMTI0Lw5Jlts8wZaTjuXPMSqHEZJzmlysO3YOHXTJC4IYQMoJPAQiwM36YHYEg265fWn/cactq3FfkprpDnHETuWAPu52zUvD8HMsNl1WXNEXYsdtF4VENdmG7rUJ2LzOIwsJISQq/5zAw+px4IIuDy+GjAjwnGSd2WFBRb825rwSX8vAxgyuGh4hTZ2NE6HK4awmBzVzPXD6PcFZeMnnFgtPwI+hjTncrnssEbhfjcWY2gkOf/27+QUCEfEevMDD6fdIWkjW9rZRty+QVSAEb0bqMb+7DkII2ldGcc34CC+Ha/DQ9Bw7bjtu1JRicmcJNq8Tk9srwb/BfUKyureN1QhpCfAcZnfXwAs8rF5HqJWvB2woEJgXBLFy3nbbcFaTg8bFYDBuQdcn3K4rhzfgByEEjQsD+DjRjNal4ZhCMm1ZiXl/OYFH+/KoREgWrGZcNRThkr5ATKfVwWfznCZHsjxRehkayRMeZZMckSJH2QTLWEBux3uc1eSI3T0AkNvxXhSSMJlt1WAmWiTPS+PCAK4aiuDwecTA2ah0yFl+a+d6cUKRjr9Mz3G7/rGku2g/hBAUdTNYd+zgQWNVlJDkdryPW+6cwKOsV0WFhPKz8nMIyX5sXieu6Avxi6EIjgO6MfYLCSEEY9uL8Ab86DfPIImRYWDfDJQ2T3DY4FDE8q+ZGG0/dq8Ldxue4rfQ8MHDplt15ehaHT/w+ADQsjSMU6oMXDM+Qn7XR/AHvDhjCUlmWzXKetVYsm1AP9OFNHU23o014dNEiySV9CqjhKR1eSTm8E1562ucVGbgSb827hBPw2z3N5/O3eH3ILfjfSj/zSjqZvBxwhR1LbHSm9F6NC8OoXlpCEu2Tfg5FvrZbkxbVtC5Oo625VFJCs7fkgdZy6uodW3Lo6G5QIKVjN3rxPWaEminOyXzkIRHXGim23FCmY5F24ZESPwci4emZ7gTMYJr3roulmFmWzVSFHIUdTOSsg0Hgvs4FncbKpDT8Q4uvwdX9IV4M1L/eT4TjoUn4IsrJI+6FXHvX1b724RdNgtWMy7q8iFvfXXkTzqEhaS8T4N1xw7MDgvMDgvq5nolQgIAG85dXNYV4I/6J+Lf5b8tr3Cv8akk/iOzrRqnlBmSIfGnVJm4rC/E3O4a/jI9xzlNLkp6lCjtVaG0VwVZyyukqbOwvpd4gsYAz+N+YxVu1ZVjYnsJZzU5kuHXsXD43eAEPqaQXDeWxC33V8N1uFVXToWE8rPycwoJAPzd/AKnVVkH9lOHhWRiewl7PheKuhlcNTyCLTTBUTIjj5r1ddW+hdOqTIxsfh6a+zVCwgvBlo/wy57lAxg0z6BvferQqX15FOc0uWhYGDiwbHiBx0PTM9xreor25VGcUWdjYnsxYctNLCHZ32WTokjHFX0hrhqKJOm8Ni9q+0fdCpxUZuAXwyNxcqvwdpf1hcHJsYzF+MX4SDIBVpo6G/cbKw+c7vtrmNheCgZTavOjrmV/uqjLxwlFeszpyTecu7igzUOqKkuSTquykMTIkKJIj1qXqsrCX6bnCPDBFq/6+T5cMzyC1euImhjN5ffgF8MjPOpmxG8pRbaQNC0MBoXaHBTnnrVJXDMW45wmF8mMHFcNRZIJx1IUcnEiMQICzXQHzmpyUDmgwxlNtjjCI5J4QnK7/jH+NFXFTDdCo7P2/22S0PT1dxueIomRoWa2J2pCwlgpMpbnoBiSSCEBgO61CfxaU4yp0A+Sf1teIb31jaQbJ1ELiTfgx9reDi7rC7Bi3wIBAU8EFHUzyGirTjjXh0AEqCbbcUIpR9/6FAgIirsVuKjLx5Yr8Scg4gnJOU1u3HL/01SFC7TLhvLz8nMKiSfgwzXDI1wxFB440VBYSAo6P+KiLh+nlJkwzHbDG/DjbsNTPGisjAqSnLeuI02VJYnZiCcknMCDF4SEQrK2t4NfjcXoWDl4Ird4uFkfLusLDhSSAM/hSb8Oqarg/BmcwKOg6xPOaXIwm2BkxGGEJPwtjvAokHBa29vGh/Em7EbMf/CoW4H7jVVilwYvCCjs+oT01jficEzdTCcaFvolFcuzQeP/TEgmt5eirmV/mrGsxhUSjudgdlqw7pCmees6rugL8aibwdreTtT6bffnyeF2PQ6YFocgECIRkmAcRBvOaXLFymu/kDh8blwxFCK99Q2EUAXr41jIWl4hs+3zBGwEBJ0r46FJtj5Lh5v14WZNKZIYGcr61DGFNZ6QHHWUTfBa9/CgqRLnNLn4t+UlzmvzIlIukhUynFJm7Fueh8d9GlEgjioknMDDE/j84b+HpucxheSasRj/trwS083aMlwJdVGyPIes9rco6mbACTwGN+aCP1i2ouc5iWRocw5p6mw86lGI51vb28FFXR4eNj1P2GoZT0joKBvKf5gfW0iWbJvoXZ/Cns8lBg5uuWwo61UjWSHHx/Fm8SW647ZDPdWGie0lcRkBEb/BkszI8afpGeaswX771qVhnFRmoHM1ei6TAfMMTikzsBwx30WkkBBCsO22oXa+F3caKmDzuhIKyfTOClIY6XDV8l71kQNQkxl5QiEJDvesRRIjk4wwWLZv4bK+ELfqyjBnXY8ZVHc4ITn8xGiRQsILAhSTrbigy8OSPdjlYfU4xEDErtUJ8Z7FE5JwV5t6quPAbrqDCAvJYUY8LFjX4wpJPOJ9y+YgIoXE6nHgek0JCiI+XxArqNW0OIiTyozgN2EIwbJ9C3caKnDNWIyGhX7suO2Y3V3DeW0uXg7VSs7nYX2Qt75BEiMLTiEf49d+PCG521CBf5pfxky36sqjhGTasoLrNcE5PDpWxqLkx8V6caOmFOW96kOV7WGFZD/BANb3osABQSG52/BU8iHLv0wvRCEBgs/MJV0BGhcHcL+xEk/6NHE//CcQgvHtRVzU5eOKvlAS50MIQe1cL04qMyBrfiUGFe8nnpCc1+bFLfd/ml/SoFbKz8yPLSQ9a1OS7138YniEc5pcJDEyFPcoJC+E92NNYtBh+Bd4uIk0iZFBMdkW/Iw3CHbcNvxiKMLDpmcxP0BlnO1Gmjpb8oXNsJDYvE6U9qrEfGS2vYUvwCYUktalEZxSZkhaKJx+z4HfKIlMK/YtXNTlxxWSXY8DdxorkKKQ42m/XtLqQwjBkn1TnJci+PVX6XXHEpJXw7XIan+LztXxrxKSVfs2UtVZOKFIxxV9Ea7oi3BBmyeWYbB7bB4EJK6QBHgO9xsrkczI0bY8Euesh+NnEJJP4804pcrA3O6aWHnHEhJO4PCrsRh/N78QP1PvCfjRtTqOM+psnNfm4awmFxmt1ZKJwgI8J060dVGbj1RVVlAU9klJPCF5NVwL42x3zFTWqxKFRCCC+Pd0Tpsb/BJxjDI5qpBUDRpg83z+vkzL0tCBQhLgOfxqLIn6LtH+LhteEKCb7kSaOgu5He/xYrAGnMCjaXEQJxTp+Kf5RVwZISBoWhzEGXU2LukKsLq3HXW9wZFW7UhiZLiiL8LI1kLM4eixhOT3usdxy904240HjZVUSCg/Kz+2kLhYL+rm+/BquB4FXZ9Q3KPE+3ET+s3TUc2dy/YtVA7oo3597Xr2MLGzJH5xd92xgz+bqnBGnY2x7UVwAo/utUmMbS1gxb6F4c05XA99zCv80mF5DultwV+SyQo5fjE8wvuxJrFPGQDejTbitCoLAxuz8IamgfYG/LB5XSjs+oTz2lzxuzGegB8re1tHSjOWVVzQ5kmEhIDA4rajerQB5zS5SFVlQTfTFTdWZHZ3DX82BT8qd7vuMZRTbVjd20aA5/BxvBmnVZm421CBc5pcpCjkuFFTikfdCkxbVqCf6cIFXR5mLasJ8+kLdWlFCgnLc9DNdEE304mauR70rE2id30KC1YzFm0beDNSj771aRBC8GzQEFNIBELQvDSEin4dtt2J56A5iLCQPOnXgplsTZieDuiihGTX40g4PFU1FexqeWh6Bv1sV9ztaud7JV/+DQuJN+CHaqoNmqkOidAEBA4Pmqqihv3qZrrwcdwkGb2xaNtAWZ8Gp1TBicfS1FmoHDBgy2XDns+Fx30apCjkeD/WBKffgz+bnuGUKhP6mS5JZfu1XTYEBH3rUyjuUcDs3IWfC0j+PsLJ4rbjurEkOGlcjPXegB8BnjvUt2yAYBzVns8lXgsn8Kif78NJZQa00x0AgJndNXyaaME1YzFu1pbh97rHOKPODs00m4c0VRZeDdehdXkE9fP9+MXwCP+2vMJ5bR5yOt6je21CFH+BCJiyrCCzvVqcT2bBao77t8gJPGrmenFeG/xby25/i5alYfF5oF02lP+H/NhC8q2xe124aijCKWUGOiNGq+z/xHuKQg719OdptVmeE+dMeB4arrqfodA3c2K9KFMUcuR1fhBHjvSuTUbN+HqYtL/LJjz3STIjw83asgMDfIHgrzNmskUcEnxalYm53XX82/IKF3V5KO1RBWeC3fdLORjUKpcMtYyVwh+h2x9Dkgizw4J3Y42ome3BFX0R5C2v4/4C/RaEhSRVlZVwGu6zmhykhVp2IoVkamcl4RTgh00XtHmwRNyz/UGtALDusOC8Ng+X9AU4r80NzWXRGFXREULA8gGMbM6HvksTnAp9aHMOvMDj43gzbtSUYsNpwb3GSlFGwvfZ4t7DVUMhkhgZ/m1+KbamhIVkbc8izs1ylBRZOXICj7zODwc+Q/GSfqbr0F02HtYXM7+X9YXiJw4GN2ZxQRf88GX1aANmd9dE8QoHtfavT4uBzSU9CnACj3XHDq7qgxOdpaqyMLw5h6f9OnFSvZyOd4duSTQ7LPittgwpCjnOa/PEzw9ECkndXN8XzTHUvz51qDxQKD8I/7+EZNezB1nLK7SvjEpaWIY25tCyPCKmkc35qArR4tnDvDX+x84EImDBakZ76Fsi4dS6PILhzXnJbKlOvwdTOytHSsMb87heUyIZMji2tYDb9Y/Rsjx86BcgEGxZ2XRZ0bAwANPiEAghoWGm8bsXNpy76F6bFCeiipf2fC4AwJM+bUgsDhYSm9cJeetr3KotR1bb22A3xXf8Uun0zgou6vIT3s8wS7YNXNDlYXjjcwAjywew5bJ9ddp22yQtHdrpTmS0vpEMefawwbigygE9Kgf0MM71xJynhRCCrtUJpKqC3Qwdq2NwsV5JOfo4Fm3Lo7isL0DT4mDUM271OvGoWwHl1OcuvY6VMdxteAqHz42utQnJs32YNLa9KB4/PI3+Qc9QvLQRamF5P9aE7n0TI265bKib74PD/znI3bQ0hGeDBrHs9DNdWI6YxEwgQtxnPiwkpsUh5Ha8x/j2kqSbMzyx2qeJZrhYLxasZmS2VUuGdB8WP8diYGNGbMkFgkIib32N18N1WHfsHLncW5ZHJEHmFMpPwP8vIaFQ/ssIRDhw/hZCiOSjcBQKhfKDQIWEQqFQKBTKsUOFhEKhUCgUyrFDhYRCoVAoFMqxQ4WEQqFQKBTKsUOFhEKhUCgUyrFDhYRCoVAoFMqxQ4WEQqFQKBTKsUOFhEKhUCgUyrFDhYRCoVAoFMqxQ4WEQqFQKBTKsUOFhEKhUCgUyrFDhYRCoVAoFMqxQ4WEQqFQKBTKsUOFhEKhUCgUyrFDhYRCoVAoFMqxQ4WEQqFQKBTKsUOFhEKhUCgUyrFDhYRCoVAoFMqxQ4WEQqFQKBTKsUOFhEKhUCgUyrFDhYRCoVAoFMqxQ4WEQqFQKBTKsUOFhEKhUCgUyrFDhYRCoVAoFMqxQ4WEQqFQKBTKsUOFhEKhUCgUyrFDhYRCoVAoFMqx8/MKyZ7Phcd9GigmW8VlAZ5Dw8IApi0rx5iz/wZ183143KfBin3ruLMSF4EIYPn/thiPbM7jcZ8G49tLx52VhPg4FrwgHHc2KBTKz8vPKySbzl0kMTLcb6wSl03sLCGJkeFmbRlYnjvG3P0YeAN+vByuBTPRcuTKoqibQRIjw9DG7DfPl9lhQW7He/SsTX7R/oQQbLls+Kf5Jd6ONn7j3ElxsV40LAzgsr4QSYwMSYwM/zS/xKLVDF7gAQBu1osn/VqYFofEZd8K/UwXkhgZ6uf7v+lxAcDhc+NxnwY1sz0ghBx5fwKCAM9haHMOaZpsTO4sf/M8RmLzOvFpogVn1NnivSjpUWLTtQshlH8P68PTAR3q5/vBRdwLjufwcbwZr4br4OfY75pPCoXyRfy3hGTXs4ebtaV4M1IvvqD+P6OebEeaOhsLto0jVzjfS0gICLLb3+GqoQgOn/vI+9t9LhT3KHBek4ckRobq0YZvmr/9ZLRVI0UhR0ZbNVRTbXg6oEeqKgunVJloXR4Rt2teGsIpZcY3L6/vJSQBnkNOxzvcqiuH0+858v6EEAxvzuNBUxVOKNKRxMi+q5D4uQB+r3+CE8p0lPWqoZxsQ37nR6Qo5DirycHY1qK4bdfqOFIU8ijh3fO58KuxGKU9ym8ujhQK5av5bwkJ5TNL9k2cUefg3WgjCI4uZ99DSAghaFkaRpo6C6ObC0fet3auFykKOU6rMvF384v/iZBUDugxZ12XCN3UzgpOKTPwW20Z/Fzw78Ab8ONOQwX+bXkpLvsWfC8hmbKsIFWVhbr5vi9qHcluf4skRoYbNaW41/j0uwuJN8Ciol+HXc+eZLlpcQhJjAz5nR/F59zHsbjX+BQPTc+i7oV2phMnlemY3V37bnmlUChfBBWS/yqVA3pc0OZhw7n7Rft/DyHxBHy4UVsCeevrI1eChBB8mmjB/cZKbLttGN9e/J8ISaxf0rwg4J+WlzitzBTLl4BgbGsRJ5UZaF8Z/Wbn/x5CIggCMtre4GZtGbwB/xcd49/ml/g4boI34Ef1aP13FxJCSMxuR4fPgwu6PNyoKRXlg4Bg1rKGUzHuxa7HgTOaHFT0a79bXikUyhfxcwjJ8OYcynpVuNvwFPcbq/B8yIjRzfmYXTYV/ToYZ3sk+2+5bHg5VIu/TS/wW20Z5K2voZpq++ogPJvXiapBA1RTbVi2b+JJvw53G57ioek5FJOt8HEs/BwLZqIF/zS/xO26xyjpUWLFvi05DssH0Lw0jLI+NR40VeFWXTlyO9+jfqFPzKOfC6B6pAFPB3RYd1jEfcNN5xX9OgxtzIKAgBN43KgpRV7nBwT2xdJsOq14N9aErPa3uFVbjj+bnqFq0ACz0yLZLiwkgxszGDDPoLhHgd/rn+Ch6RmeD9Vgy2WLKo/O1XEUdTP4vf4J/qh/gqJuBtOWVXH9zG6wkqid6xWXzVvXUTmgR91CHwTy+X6wPIf3YyY8GzTC7nOBQFohTe4sf5GQEBB0royhol+HztVxiRjZvA48GzLg03hzVLlFwgsC/ml+iTR1NnbcdnF5uFvhn5aXB8YwzVnX8WK4Fhlt1fitthz/NL/A65F6uFmfZLuwkNTN92HBakZZrxp36ivwoLEKVYMGbLul94ETeDQvDaOom8Htusf4o74CxT1KrO59fubmreao+9C4MIDKAb1kuzAu1osXwzVQTLSKghZ5r6pHG75ISGZ311DRr0PL8nDUOgKChoV+PB3QY8e9F2PvIA6fG+e1ebhVV44A/1keBUJwv7EK/7S8lMSMEELwergO57S5kntHoVCOnR9bSIKV7RxOKjOQqsrC7/WPca/xKS7pCnDdWBwlJMv2TSQxMmS2VYvLNl1WXNQVIFWVhbsNFfjTVIUbtaV4aHouqXQ8AR923PaEyep1SPK3treDU8oM/F7/GPcbK3Grrhx3GipwVpODJEaG1yP1yG5/hwvafDxoqsKvNcVIUchxRpMDS0TT87zVjDPqHFzRF+JBUxXuN1VSNNMHAAATHElEQVTivDYXSYwMDQsD4namhUGkKNJR2qMSKwSWD+Bu41NcNRTB7nNJ8mVaHIoq0+z2dzirycFvtWX401SF32rLkMzIcK/hqeTFHRaSj+PNuKQrwM3aMvzZVCUGd95teCr+uhYIQd1cH1IU8tA1VOJe41Nc0ReicWFQPKZuuhMpCrlk5I7T78Hv9U9wUZsPi8cu3vfmxSEkMzK8H2uK2eX0pUICABvOXVzU5eNWXRl8oWsWCMGzQSNOKjMweECr0I7bjjR1Nv6ofwKW+/wMCURAeZ8al3QFsHtdCY8ha3mF89o83K5/jD+bqvCrsQTJjBz3Gyvhi2i1CAtJSY8Kp1VZuFlbhgdNlbhqKEIyE3qWQhU2IQS6mU4kMzJc0RfiT1MV7oWejQHzjLiNZroDqaosiRg3zPcH7/dEs6S8CSHoW59CEiODarIt5rV8qZBsuqw4pQp3fUkDTfd8blzWF+D3+icJg1DDLWWPupmodc+HjLikK4gSj/nddZxUZqB5ceiLujMpFMp34ccWknXHDs5pcnGjpgQre1sQiABCCFysF6W9qkMJiXqqXWzyDr98eCJg1+OQBL7qpjvFyP146UZNqSR/4Yo/LA4CEUBAMG1ZRZo6GyeVGbheUyL+ig3wHF4M1SKJkUlkweZ1YtqyIlaOQDAG5Lw2D7KWV+Iyb8APWcsrnNXkiK0kNbM9OKFMR/PSkPhr3zDTjVR1Vszumt71Key47eK2AZ7D0wEdkhgZOlfGxe3CQnJOk4Px7UVRgFysFyU9SlEGhFBZpqqzcKOmFG7WCxL65+NYuFiveMzs9ne4XlMCT+BzKwAhBCOb8zipzEBmWzVYnoPT78GtunI8bHoW1WIQ5muERCACVFPtSGbkUE21gSA4aue8Ng+FXR/BCfFbNwQioKRHiRSFXCKL4WsxzHaHKvvEw6XHthZh8zrF+8DyHIpD5ToRMcQ3LCRnNDkY3JgRWyj8HIuXw8Fn6c1IPYDg83HNWIzzmlyJ8HoD/gh5FFDSo8JlfaEkqNji2cM5TQ6uG0vgiShzXhBQ3KPEeW0e1h07Ma/lS4VEIAIedTFIVsglXYOEEJgWh5CskKNhfiDu/t6AXwyqHdqci1rfuDiAVFUWZiNa6YDgj49LugI8GzRKWnooFMqx8mMLSd1cH5IZGXQzXVHrZnfXDiUkzEQzkhgZdDOdCeMWWD4Ap9+TMLkjKlfgs5Bc0RdK1vm5AO43ViKZkaN3bUqyT795GkmMDO8OGK7q9Htwp/5JlAQt2jZwTpuLjNY3WLCakabORmmvUtKdUdytwBV9UdzKPBKBEAxuzOCEIl1SuYeF5MVQTdSIpV3PHi5o83C/sRLegB87bjtOKtNxzViMXc9ezHJm+QB+r3+Mf1teRXWVERBUDRqQzMjQtz6FD2MmpKmzMb69FPcX7NcICQCwXADy1tdIU2dhwWpGRusb/GosTtiMv+O2I7fjPVIUcpT0KGPGX/SvTyNFkY7hjegKMhECEVA714skRobW5c9xD2EhqRo0RO2z7tjBSWU6fq97DE7g4Ga9uKQrwFlNDswOS9T2QLBLR9byCrfqyiX5JyB4FRKc/vVp8R66WC9+NRYjo6067pwvXyokADBjWUWqKgsV/TrxueAFAQVdn3BBmye2/kRCQLBs38SdhgqcVmXiw7gpZqzPyOY8UhTp6N432oblOfxWW4as9rcJu+YoFMr/lB9bSCr6g7/cp2JMdGb1OpCqyjxQSKYtqzitysRpVSYy2t7A6nFEHetLCQvJ/cYqcBH915zAI7fjA1JVWdjd90KNV5EKREDX6gRKe5S4VVeOK/oinFCkRwkJIQTa6Q4kM3JcMxYjbV9LCCfw+LflJa7XlMAX4x4F5/Cw4t1oI/4yvcA1YzEuaKOH0IaFZMA8HXUMlufwR/0TXDMWY8/nAi/wKOr+hCRGhsv6QtTN90VJh5v14rK+ENnt72KW5abTijPqHFw1PMIpVQY+jTcnFMhEQmLzOnG77jGuGYslaX+A7szuKk4ogiKVokhH1+p4TAEiIJjcWcaVUHfVu7HGuBXZ3O4akhn5gYGtBATrjh28GanH/aYqXDMW46wmN66Q1M71RR3DG/Djir4Q57W52PO5QQgR/2Yu6wtRP98nmYsDCLaI3WuoxJ2GiqiukBX7FlJVWSjtVYn3r2dtCikKOVqWhuPej0RC0rM+FXUf/m5+AVYyOukJfqstEwXa6ffgir4I8tbXUeVMCEHdfJ/YLdq8NBS3lWPRtoFkRo7GfS1ZnMDjfmMl/ja9oHOSUCg/Dj+2kOR1fkASI4vZ/G3zOpGmyjpQSARCMLq1gMy2aiQxMpxQpCOr/S3mrWbJ8QI8LzZtx0u+gPTlFU9IeEFAXudHpKqyYNsnQLEq0p61SVzQ5uGMOgeZbdV4NmjE27FGXNYXRAkJEKy8T6sykcTIUNytkLyQeUGArPV1TCGxeZ3I6/iAFIUct+rKUdyjxNuxRpT3qZHMyGMKSaxRNizP4U5DBa4Zi8W4FU7goZ3uxFVDEZIYGS5o8/FxvBkuf7DlyM16cdVQFFdICCF4PmQMdk+os7Gyl7jLI5GQuFkf3o814fVIvSTtf45YPoC7DRWh/ObFnBeFFwQYZ7uRps7GnYYKDG3MJWzmX7CuB4VkOb6Q2LxO/NPyEsmMDHcaKlDep8b7sSbkdryPKySxRtn4An5cNRThnCYXe6GYFRfrhXqqHb+GYqwu6vKhnGwTuwMDPIf7jbGFxM8F8KCpCjdqSuH0e+Dngy19N2vLJN1s+0kkJAs2c9R9UE62iaIkEAJmogWnlJliV1XdXB9OKTMwYJY+e96AH6+G63BSmQ5562ss2TYSxoAs2zeRzER3rXECjweNVVRIKJQfix9bSPI7PyKJkcWcM2DTaT1Ul00kVq8T/za/RDIjx3ltHmwRgYdfE0PyNULiYr24oi/EGXU2LBHdBZ6AD3fqK+K0kHSGriEXp1UZUc3zj7oZ/GosiRKoD+OmYBfYdKdk+ejWQtwum6GNmahy9HMsrteU4rfaMlE4Iq+9dWkEF7X5oesMdk2xHIfbdY+R1f425i/tcAvJeW0ukhk53o42fHELyWGZsQRbSM5r80ISMRZVwdXM9iCJkUHW8iqqPGPRtx5sUehbn4q5nhcElPQGY1A6Vyck52tcGIgrJHUxhCQ4wiQXvxgeRQmDQAS0Lg/joi54H5iJFhBCxC6bO/UVkpglINhqo5pqwwllOoY2ZoMtDIqDy/hrumyAYJBxqioLhV2fxJFKv9c/kbSOEELwcrgWyYwcL4ZrDxX7Mbw5hxSFHG0RE9gBn7ts0ltf/+c/PUCh/ET82ELyKRT/YZztjlrXvTZxZCEBgr+OynrVSGJk6I2oNNb2ttGyPJIw9e6rZL6FkMztrokzgUZWwFaPA1cNRRIhISCY2F7CWU0OynrVGNoIvnCLuhhJH7pysg1p6mxsOa2Scxd0fsRpVSbmdtclyzWhwN9YQvJxzBQlBjOhbrBYw4rDrNi3cFKZgQdNwftDCIG89TWu15RGVewCEVDaqwrGXmzOoaiLwWlVJoY3575bDImb9eGh6Tku6vIxv7uOW7VluGoo+r/27vypiS2LA/j8oQ8Qt9Fxq2dZg+J7PquUhE0gUQdiFBVFSiFbQwCTiOwBApEAEVBkScRAAA0QsvT2nR86NGkSlBF8ic75VN1fYleq01fNyb3nnItA0vZXjIvj97Y7uOq4j1D061Uz25/RPjOMfFPqM962xUZRYKvBWatGkTwK7HyxpwtI6sfsKe/lXZaOSrjV9zxt8CaKIuYT2zCXXlbL581oBww4Z9VgPU2H1pVwCP9qqURVfyMM3i4cMRV/82yogwYkgihA62zCCaY80WVVDWaqV3HNp/VVnGDKcavv+b4bz3XNe5BvKkk5B2h7q6t6yELn7xCSPbI7IHm36sdRcwkutt/FTOLsEF7gsRBawmX7vX0FJHOfAwhsrIEXpAqdCBvDfwbNyDGoDnwI32EEJP5QEPnmEhTYauSqi3A8ioYxB3KNKkVAEoqGUWiXtko2YlsQRAGPR9uRYyxCW9J5JO9XP+KISY1BnzKZr8bFIM+oRtfcqPw8plZ8OJHYj08XkJxqvgVvcA68wMtfcBfb7yLfVIKxJanbajgegScwI1fUiKKYuIdilCdt0TRNdOGoqUSxoiMkKiryjGo0jDkgiCKC4c84Z9Wg0KHfs635QQISTuDx0N2KfFMx3Ily2Herfhwzl6Kk55kcZHmX55BrVMm9X9KN7dwN6bMIeDBixanmCkWuknmyBxV9L/AlsoEYx+Kv1w9x3FKGyeA8eEEAJ/AYW/qAU1/JITndXIHxpVmwPAdBFBHYXMPNxLbP0EdpnmNcHN7leWyxUYiiCEEUMbP6EccspVB1PwWXmEODtwvHLWUpvWe2PX7TjpNMOS69rMYfr+6nrKTsdtCABABGFqdxxKTGH6/u46i5JKUfSuOE9OOkY3Zkz7nYHeDVe+w41VyhCDIBYOHLMo6aS9L+0CGEZEx2ByScwOPFRAdyDKpEHxJpKfckUw6Ns2lfAUnDmAOnmytx2X4PhQ5pCyTXqMKdAeOBM+wPIyDhBUHOHbjQehuFDj0utt/FVYcev7fdkQOSnUoUFSyTvSlVEGetGrlPCifwON+qTSQn7tzXoF/qJ7H9LK849Dhn1aDeY0euMX0OidZpwD+ZW/L10vZGEUxve+Rl88DGKnINKlxsu4tChx6FDj3OtFRJFRtJSbETy3NyQLQtsLmGc1YtrtjvydsOgiigcaITOQYV6kZfHnofEk9gBsfMpSjuqZdzGXhBQKWzEXlGtXwGSt/COH4zFOGouQQnmVtpx4uJTrkKKc5zuOq4j2sdtXLSJgBce1WbyNlgIYoiuuc8Ug8RSxku2++hwK7D6eYK+ZmnC0j+6niIfHOx3OzsdGJL7JG7Tf57vB4N40yLlHdU6NDjikO67iRTjumk0tfJ4DxyjXvnuYwvzSLfVIwcQxF6F8a/2VX3MAKSz5ENOf+oqOuJcrsGIqoHpTL/45ayPeeib2Fc8Z7XXz/CtY7alBW55+MdOG4pQ2DXCiIhJKOyOyABpP+MOufeQOM04GZnHTTOJjg+jGBtax06FwPj22752pWtEHQuBtakMuGplQXoXAyKu+txo7MOtweMeDkzdCh7x2uRddwfscL4tlux9CuIAtrfD6HW3ZpSKry4sQKdi4HT55VfC0XDeDpqQ3FPPdTd9XjqsWF1K4QmbycaxqUcjJWw1IX2icemLNcURfTMj0HnYhQlxncGjTjfqlX0oxBFESOL09AOSM9SO2DAoP8t/KEg9MMtcPp37sk244LOxWDu8yc4Pgyjsr9Rfn6982OKzxthY2j0dkLjbMKNzsco7W3AgxEr5r8EFMHEejSM861aVPY3yq9t3/vw4rTii28zHsGjN23QD7ekrYxK9xz3gxN4NHm7oBtmUhKbfaFl6IYZPBtzIM6xcH2cgs7FfHX0+7xJK1N+HLeUwTo9oAgYTzdXoMm7UzUkQjrTp7K/ETe76lA9ZMHkygK8y3PQuRhF8OAJzEDnYjC2NIsBvxeagSbc6KyDxmmQes8kPV+W52GZ7E3MQx1KeqR5+LC2qHi2MS6Oax0PcP31I8TS/DtYi2zgjLUK/7bV7Cvp0+nzQudi9iw13g9e4FHV34gjJjUmlmd3/ZmAlmnnN+ciecXTF1rCCaZcMReAdMDehbbbqOh/QQdwEpJdsj8gId9namVB2sp5n13L0pa3vThmLsXid56xk604nsefr2pRYNOBTfqS9wRmcIIpR3Azu9qUjwbeI8+oRr8vNZF3YllaIXkyavvb7udLZBNnrRoU2HQH7p7KCTyuv36ES+3VirkAAPvMMHKNakXzOUJIVqCA5FfFCwLqPQ6ctVbBH0rfYTMTolwcN7vqUOjQp6we/cycPq9iuwfYKWVWdT/Nul/jUS6Ooq4nuNZRq1hxE0QR1UMW5BpVmAweLMfqf9G3MI48oxrPxzsO/F4jn6YTW1/K6pqN2BYKbDXQOg1UXUNI9qGA5FcWYWOocjbiyagtq6oJFr4s4bJdh37fxLcv/glE2CiKe56h1t2qaEQmQkQ4HtlXuXAmhKKbuNFZB+u0E6FoGP5QENZpJ/J2nZf0o8R5Dr7QMrzBeVxo1eJcq0ZR+v49ImwMpb0NqHFZwCXloXACD/1wC9Td9d99wjEh5IeigORXJp2Qy4PjuW8mJv6dRFEEx/MpXUR/VoIoytUvPxtO4MHyHFqmnDhiVOM3QxGKe+r3rG46TB/Xg8gzqpFjUOF8q1bKdTngds1ecyEmXk/XYp4QkhUoICGESBVjbe8GMbE0+8NXRrZF2Bhevnehe96TUrJLCPm/QwEJIYQQQjKOAhJCCCGEZBwFJIQQQgjJOApICCGEEJJxFJAQQgghJOMoICGEEEJIxlFAQgghhJCM+2pA4k4eoii6WZZ1RyIRdygUcrMs6959DQ0aNGjQoEGDxneMkT0DEkIIIYSQTEgOVjJ9L4QQQggh//gvDAPMEBFRaTIAAAAASUVORK5CYII=;" vertex="1" parent="1">
          <mxGeometry x="600" y="120" width="347.22" height="230" as="geometry" />
        </mxCell>
      </root>
    </mxGraphModel>
  </diagram>
</mxfile>
